FacultyGlyphic.glyphspackage
{
glyphname = numbersign;
layers = (
{
layerId = m01;
shapes = (
{
closed = 1;
nodes = (
(287,775,l),
(287,730,o),
(285,692,o),
(266,597,cs),
(256,550,l),
(242,550,ls),
(167,550,o),
(136,550,o),
(70,563,c),
(70,462,l),
(135,475,o),
(166,475,o),
(239,475,c),
(203,312,l),
(192,312,ls),
(117,312,o),
(86,312,o),
(20,325,c),
(20,224,l),
(85,237,o),
(116,237,o),
(187,237,c),
(175,183,ls),
(155,102,o),
(135,41,o),
(113,0,c),
(248,0,l),
(248,45,o),
(250,83,o),
(269,178,cs),
(282,237,l),
(491,237,l),
(479,183,ls),
(459,102,o),
(439,41,o),
(417,0,c),
(552,0,l),
(552,45,o),
(554,83,o),
(573,178,cs),
(586,237,l),
(600,237,ls),
(675,237,o),
(706,237,o),
(772,224,c),
(772,325,l),
(707,312,o),
(676,312,o),
(602,312,c),
(638,475,l),
(650,475,ls),
(725,475,o),
(756,475,o),
(822,462,c),
(822,563,l),
(757,550,o),
(726,550,o),
(655,550,c),
(664,592,ls),
(684,673,o),
(704,734,o),
(726,775,c),
(591,775,l),
(591,730,o),
(589,692,o),
(570,597,cs),
(560,550,l),
(351,550,l),
(360,592,ls),
(380,673,o),
(400,734,o),
(422,775,c)
);
},
{
closed = 1;
nodes = (
(334,475,l),
(543,475,l),
(507,312,l),
(298,312,l)
);
}
);
width = 842;
}
);
note = numbersign;
unicode = 35;
}
{
glyphname = dollar;
kernLeft = S;
kernRight = S;
layers = (
{
layerId = m01;
shapes = (
{
closed = 1;
nodes = (
(353,-115,l),
(345,-81,o),
(341,-47,o),
(338,-13,c),
(469,2,o),
(547,83,o),
(547,198,cs),
(547,319,o),
(447,385,o),
(346,433,cs),
(335,438,l),
(335,705,l),
(411,692,o),
(453,636,o),
(466,587,c),
(469,587,l),
(524,695,l),
(517,704,o),
(465,775,o),
(338,787,c),
(341,821,o),
(345,855,o),
(353,889,c),
(242,889,l),
(250,855,o),
(254,820,o),
(257,785,c),
(132,770,o),
(52,693,o),
(54,594,cs),
(57,475,o),
(159,425,o),
(260,377,c),
(260,68,l),
(176,82,o),
(128,147,o),
(105,205,c),
(102,205,l),
(35,96,l),
(51,77,o),
(117,-1,o),
(257,-13,c),
(254,-48,o),
(250,-82,o),
(242,-115,c)
);
},
{
closed = 1;
nodes = (
(335,340,l),
(397,306,o),
(442,265,o),
(442,198,cs),
(442,133,o),
(400,84,o),
(335,69,c)
);
},
{
closed = 1;
nodes = (
(202,503,o),
(158,535,o),
(158,591,cs),
(158,649,o),
(199,691,o),
(260,704,c),
(260,473,l)
);
}
);
width = 582;
}
);
metricLeft = S;
metricRight = S;
unicode = 36;
}
{
glyphname = ampersand;
kernLeft = "8";
layers = (
{
layerId = m01;
shapes = (
{
closed = 1;
nodes = (
(385,-14,o),
(448,38,o),
(492,98,c),
(532,51,o),
(557,20,o),
(565,0,c),
(715,0,l),
(667,40,o),
(615,87,o),
(561,143,cs),
(535,170,l),
(565,226,l),
(620,317,o),
(645,377,o),
(694,428,c),
(542,428,l),
(540,397,o),
(534,375,o),
(506,291,cs),
(482,228,l),
(320,402,l),
(443,459,o),
(501,523,o),
(501,601,cs),
(501,701,o),
(411,785,o),
(305,785,cs),
(195,785,o),
(100,695,o),
(100,591,cs),
(100,506,o),
(164,439,o),
(198,408,c),
(110,361,o),
(35,303,o),
(35,193,cs),
(35,68,o),
(143,-14,o),
(285,-14,cs)
);
},
{
closed = 1;
nodes = (
(211,70,o),
(148,111,o),
(148,192,cs),
(148,257,o),
(181,318,o),
(245,364,c),
(444,149,l),
(408,103,o),
(364,70,o),
(284,70,cs)
);
},
{
closed = 1;
nodes = (
(251,469,o),
(198,523,o),
(198,591,cs),
(198,637,o),
(221,705,o),
(304,705,cs),
(383,705,o),
(403,641,o),
(403,601,cs),
(403,537,o),
(350,488,o),
(275,448,c)
);
}
);
width = 737;
}
);
metricLeft = O;
metricRight = x;
unicode = 38;
}
{
glyphname = parenleft;
kernLeft = bracket;
kernRight = bracket;
layers = (
{
layerId = m01;
shapes = (
{
closed = 1;
nodes = (
(252,-121,l),
(206,-47,o),
(130,133,o),
(130,359,cs),
(130,586,o),
(206,767,o),
(252,841,c),
(186,845,l),
(127,757,o),
(35,586,o),
(35,359,cs),
(35,133,o),
(127,-37,o),
(186,-125,c)
);
}
);
width = 312;
}
);
metricLeft = O;
metricRight = "=H-10";
note = parenleft;
unicode = 40;
}
{
glyphname = asterisk;
kernLeft = ast;
kernRight = ast;
layers = (
{
layerId = m01;
shapes = (
{
closed = 1;
nodes = (
(57,467,l),
(163,555,l),
(140,419,l),
(234,419,l),
(211,556,l),
(318,467,l),
(364,549,l),
(234,597,l),
(364,645,l),
(317,726,l),
(211,638,l),
(234,774,l),
(140,774,l),
(163,637,l),
(56,726,l),
(10,644,l),
(140,596,l),
(10,548,l)
);
}
);
width = 374;
}
);
note = asterisk;
unicode = 42;
}
{
glyphname = hyphen;
kernLeft = hyp;
kernRight = hyp;
layers = (
{
layerId = m01;
shapes = (
{
closed = 1;
nodes = (
(370,394,l),
(304,381,o),
(273,381,o),
(198,381,cs),
(192,381,ls),
(117,381,o),
(86,381,o),
(20,394,c),
(20,288,l),
(86,301,o),
(117,301,o),
(192,301,cs),
(198,301,ls),
(273,301,o),
(304,301,o),
(370,288,c)
);
}
);
width = 390;
}
);
note = hyphen;
unicode = 45;
}
{
glyphname = period;
kernLeft = period;
kernRight = period;
layers = (
{
layerId = m01;
shapes = (
{
closed = 1;
nodes = (
(40,64,l),
(118,-14,l),
(196,64,l),
(118,142,l)
);
}
);
width = 236;
}
);
note = period;
unicode = 46;
}
{
glyphname = slash;
layers = (
{
layerId = m01;
shapes = (
{
closed = 1;
nodes = (
(381,845,l),
(371,804,o),
(360,758,o),
(325,666,c),
(96,116,ls),
(55,20,o),
(26,-37,o),
(0,-70,c),
(128,-70,l),
(138,-29,o),
(149,17,o),
(184,109,c),
(413,659,ls),
(454,755,o),
(483,812,o),
(509,845,c)
);
}
);
width = 510;
}
);
note = slash;
unicode = 47;
}
{
glyphname = zero;
kernLeft = O;
kernRight = O;
layers = (
{
hints = (
{
place = (368,30);
type = Stem;
},
{
horizontal = 1;
origin = (1,8);
target = down;
type = TopGhost;
}
);
layerId = m01;
shapes = (
{
closed = 1;
nodes = (
(552,-14,o),
(672,166,o),
(672,388,cs),
(672,610,o),
(553,789,o),
(353,789,cs),
(154,789,o),
(35,609,o),
(35,388,cs),
(35,166,o),
(154,-14,o),
(353,-14,cs)
);
},
{
closed = 1;
nodes = (
(215,66,o),
(138,207,o),
(138,388,cs),
(138,568,o),
(216,709,o),
(352,709,cs),
(490,709,o),
(569,568,o),
(569,388,cs),
(569,209,o),
(490,66,o),
(352,66,cs)
);
},
{
closed = 1;
nodes = (
(275,388,l),
(353,310,l),
(431,388,l),
(353,466,l)
);
}
);
width = 707;
}
);
metricLeft = O;
metricRight = O;
note = zero;
unicode = 48;
}
{
glyphname = one;
layers = (
{
layerId = m01;
shapes = (
{
closed = 1;
nodes = (
(108,147,o),
(107,72,o),
(90,0,c),
(221,0,l),
(204,72,o),
(203,147,o),
(203,222,cs),
(203,553,l),
(203,728,l),
(203,780,l),
(30,642,l),
(30,636,l),
(92,636,o),
(108,621,o),
(108,513,cs),
(108,222,ls)
);
}
);
width = 271;
}
);
metricLeft = "=l-10";
metricRight = "=l";
note = one;
unicode = 49;
}
{
glyphname = four;
layers = (
{
layerId = m01;
shapes = (
{
closed = 1;
nodes = (
(636,294,l),
(636,312,l),
(590,301,o),
(543,296,o),
(495,294,c),
(495,780,l),
(40,261,l),
(40,215,l),
(400,215,l),
(400,102,o),
(399,55,o),
(362,0,c),
(513,0,l),
(497,69,o),
(495,141,o),
(495,213,c),
(543,211,o),
(590,207,o),
(636,196,c)
);
},
{
closed = 1;
nodes = (
(400,545,l),
(400,292,l),
(182,292,l)
);
}
);
width = 666;
}
);
metricLeft = "=H-30";
metricRight = "=H-40";
note = four;
unicode = 52;
}
{
glyphname = five;
layers = (
{
layerId = m01;
shapes = (
{
closed = 1;
nodes = (
(591,374,o),
(484,479,o),
(328,479,cs),
(259,479,o),
(208,456,o),
(176,435,c),
(203,694,l),
(327,694,ls),
(436,694,o),
(483,690,o),
(541,657,c),
(522,775,l),
(122,775,l),
(75,350,l),
(167,350,l),
(180,363,o),
(241,399,o),
(317,399,cs),
(428,399,o),
(488,321,o),
(488,228,cs),
(488,127,o),
(409,66,o),
(319,66,cs),
(226,66,o),
(165,118,o),
(130,205,c),
(127,205,l),
(60,96,l),
(114,29,o),
(218,-14,o),
(319,-14,cs),
(472,-14,o),
(591,84,o),
(591,229,cs)
);
}
);
width = 636;
}
);
metricLeft = "=H-10";
metricRight = "=B";
note = five;
unicode = 53;
}
{
glyphname = six;
layers = (
{
layerId = m01;
shapes = (
{
closed = 1;
nodes = (
(448,-14,o),
(565,83,o),
(565,239,cs),
(565,372,o),
(468,480,o),
(299,480,cs),
(248,480,o),
(194,458,o),
(157,424,c),
(190,524,o),
(276,620,o),
(356,692,cs),
(386,719,o),
(418,746,o),
(466,771,c),
(466,775,l),
(308,775,l),
(301,764,o),
(291,750,o),
(245,704,cs),
(138,604,o),
(35,453,o),
(35,264,cs),
(35,99,o),
(127,-14,o),
(299,-14,cs)
);
},
{
closed = 1;
nodes = (
(205,66,o),
(127,126,o),
(127,239,cs),
(127,332,o),
(195,400,o),
(298,400,cs),
(401,400,o),
(472,333,o),
(472,239,cs),
(472,116,o),
(391,66,o),
(298,66,cs)
);
}
);
width = 600;
}
);
metricLeft = O;
metricRight = O;
note = six;
unicode = 54;
}
{
glyphname = seven;
layers = (
{
layerId = m01;
shapes = (
{
closed = 1;
nodes = (
(64,775,l),
(50,657,l),
(104,685,o),
(148,695,o),
(257,695,cs),
(469,695,l),
(237,165,l),
(209,108,o),
(181,51,o),
(146,0,c),
(292,0,l),
(302,71,o),
(335,135,o),
(359,202,c),
(580,728,l),
(580,775,l)
);
}
);
width = 620;
}
);
metricLeft = "=H-20";
metricRight = "=H-30";
note = seven;
unicode = 55;
}
{
glyphname = semicolon;
kernLeft = colon;
kernRight = colon;
layers = (
{
layerId = m01;
shapes = (
{
closed = 1;
nodes = (
(40,64,l),
(101,3,l),
(61,-106,l),
(92,-114,l),
(196,64,l),
(118,142,l)
);
},
{
closed = 1;
nodes = (
(40,490,l),
(118,412,l),
(196,490,l),
(118,568,l)
);
}
);
width = 236;
}
);
note = semicolon;
unicode = 59;
}
{
glyphname = less;
layers = (
{
layerId = m01;
shapes = (
{
closed = 1;
nodes = (
(528,561,l),
(30,325,l),
(30,235,l),
(527,-5,l),
(527,89,l),
(122,279,l),
(528,468,l)
);
}
);
width = 568;
}
);
unicode = 60;
}
{
glyphname = equal;
layers = (
{
layerId = m01;
shapes = (
{
closed = 1;
nodes = (
(30,348,l),
(96,361,o),
(127,361,o),
(202,361,cs),
(408,361,ls),
(483,361,o),
(514,361,o),
(580,348,c),
(580,454,l),
(514,441,o),
(483,441,o),
(408,441,cs),
(202,441,ls),
(127,441,o),
(96,441,o),
(30,454,c)
);
},
{
closed = 1;
nodes = (
(30,96,l),
(96,109,o),
(127,109,o),
(202,109,cs),
(408,109,ls),
(483,109,o),
(514,109,o),
(580,96,c),
(580,202,l),
(514,189,o),
(483,189,o),
(408,189,cs),
(202,189,ls),
(127,189,o),
(96,189,o),
(30,202,c)
);
}
);
width = 610;
}
);
unicode = 61;
}
{
glyphname = greater;
layers = (
{
layerId = m01;
shapes = (
{
closed = 1;
nodes = (
(446,279,l),
(41,89,l),
(41,-5,l),
(538,235,l),
(538,325,l),
(40,561,l),
(40,468,l)
);
}
);
width = 568;
}
);
unicode = 62;
}
{
glyphname = at;
kernLeft = O;
kernRight = O;
layers = (
{
layerId = m01;
shapes = (
{
closed = 1;
nodes = (
(470,129,o),
(520,167,o),
(534,230,c),
(538,230,l),
(548,174,o),
(599,133,o),
(661,133,cs),
(758,133,o),
(820,224,o),
(820,364,cs),
(820,589,o),
(655,751,o),
(428,751,cs),
(199,751,o),
(35,583,o),
(35,350,cs),
(35,125,o),
(207,-55,o),
(426,-55,cs),
(508,-55,o),
(585,-25,o),
(622,16,c),
(587,50,l),
(550,25,o),
(484,15,o),
(426,15,cs),
(258,15,o),
(133,158,o),
(133,350,cs),
(133,543,o),
(255,681,o),
(427,681,cs),
(598,681,o),
(724,545,o),
(724,360,cs),
(724,359,ls),
(724,259,o),
(702,203,o),
(662,203,cs),
(629,203,o),
(604,241,o),
(604,293,cs),
(604,388,ls),
(604,462,o),
(611,497,o),
(633,533,c),
(633,538,l),
(533,559,l),
(533,498,l),
(528,498,l),
(503,541,o),
(461,564,o),
(408,564,cs),
(300,564,o),
(217,469,o),
(217,346,cs),
(217,223,o),
(297,129,o),
(402,129,cs)
);
},
{
closed = 1;
nodes = (
(533,313,ls),
(533,245,o),
(486,199,o),
(418,199,cs),
(344,199,o),
(301,253,o),
(301,346,cs),
(301,442,o),
(339,494,o),
(408,494,cs),
(476,494,o),
(525,446,o),
(533,373,c)
);
}
);
width = 855;
}
);
metricLeft = O;
metricRight = O;
unicode = 64;
}
{
glyphname = E;
kernLeft = H;
kernRight = E;
layers = (
{
anchors = (
{
name = bottom;
pos = (316,0);
},
{
name = ogonek;
pos = (552,0);
},
{
name = top;
pos = (316,775);
},
{
name = topleft;
pos = (30,775);
}
);
layerId = m01;
shapes = (
{
closed = 1;
nodes = (
(70,775,l),
(87,703,o),
(88,628,o),
(88,553,cs),
(88,222,ls),
(88,147,o),
(87,72,o),
(70,0,c),
(557,0,l),
(581,118,l),
(527,90,o),
(445,80,o),
(336,80,cs),
(188,80,l),
(188,356,l),
(273,356,ls),
(348,356,o),
(423,355,o),
(495,338,c),
(495,454,l),
(423,437,o),
(348,436,o),
(273,436,cs),
(188,436,l),
(188,695,l),
(328,695,ls),
(437,695,o),
(491,685,o),
(545,657,c),
(521,775,l)
);
}
);
width = 631;
}
);
metricLeft = H;
metricRight = "=H-20";
note = E;
unicode = 69;
}
{
glyphname = F;
kernLeft = H;
kernRight = F;
layers = (
{
anchors = (
{
name = bottom;
pos = (303,0);
},
{
name = top;
pos = (303,775);
}
);
layerId = m01;
shapes = (
{
closed = 1;
nodes = (
(70,775,l),
(87,703,o),
(88,628,o),
(88,553,cs),
(88,222,ls),
(88,147,o),
(87,72,o),
(70,0,c),
(206,0,l),
(189,72,o),
(188,147,o),
(188,222,cs),
(188,346,l),
(273,346,ls),
(348,346,o),
(423,345,o),
(495,328,c),
(495,444,l),
(423,427,o),
(348,426,o),
(273,426,cs),
(188,426,l),
(188,695,l),
(328,695,ls),
(437,695,o),
(491,685,o),
(545,657,c),
(521,775,l)
);
}
);
width = 585;
}
);
metricLeft = H;
metricRight = "=H-30";
note = F;
unicode = 70;
}
{
glyphname = G;
kernLeft = O;
kernRight = G;
layers = (
{
anchors = (
{
name = bottom;
pos = (394,0);
},
{
name = top;
pos = (394,775);
}
);
layerId = m01;
shapes = (
{
closed = 1;
nodes = (
(727,412,l),
(450,412,l),
(450,313,l),
(508,327,o),
(567,330,o),
(627,331,c),
(627,112,l),
(585,85,o),
(520,66,o),
(449,66,cs),
(268,66,o),
(143,213,o),
(143,388,cs),
(143,563,o),
(254,709,o),
(427,709,cs),
(573,709,o),
(659,649,o),
(712,568,c),
(715,568,l),
(699,713,l),
(633,764,o),
(559,789,o),
(427,789,cs),
(196,789,o),
(35,615,o),
(35,388,cs),
(35,161,o),
(200,-14,o),
(438,-14,cs),
(542,-14,o),
(635,10,o),
(727,70,c)
);
}
);
width = 797;
}
);
metricLeft = O;
metricRight = H;
note = G;
unicode = 71;
}
{
glyphname = J;
kernLeft = J;
kernRight = H;
layers = (
{
anchors = (
{
name = bottom;
pos = (97,0);
},
{
name = top;
pos = (142,775);
}
);
annotations = (
{
pos = (235,239);
text = "Heavy at bottom";
type = Text;
},
{
pos = (59,843);
type = Text;
}
);
layerId = m01;
shapes = (
{
closed = 1;
nodes = (
(76,775,l),
(93,703,o),
(94,628,o),
(94,553,cs),
(94,42,ls),
(94,-83,o),
(77,-135,o),
(0,-135,cs),
(-40,-135,o),
(-67,-114,o),
(-87,-95,c),
(-90,-96,l),
(-72,-210,l),
(-56,-213,o),
(-23,-216,o),
(-7,-216,cs),
(138,-216,o),
(194,-145,o),
(194,20,cs),
(194,553,ls),
(194,628,o),
(195,703,o),
(212,775,c)
);
}
);
width = 282;
}
);
note = J;
unicode = 74;
}
{
glyphname = L;
kernLeft = H;
kernRight = L;
layers = (
{
anchors = (
{
name = bottom;
pos = (305,0);
},
{
name = center;
pos = (305,388);
},
{
name = top;
pos = (153,775);
},
{
name = topright;
pos = (225,775);
}
);
layerId = m01;
shapes = (
{
closed = 1;
nodes = (
(521,0,l),
(545,118,l),
(491,90,o),
(437,80,o),
(328,80,cs),
(188,80,l),
(188,553,ls),
(188,628,o),
(189,703,o),
(206,775,c),
(70,775,l),
(87,703,o),
(88,628,o),
(88,553,cs),
(88,222,ls),
(88,147,o),
(87,72,o),
(70,0,c)
);
}
);
width = 575;
}
);
metricLeft = H;
metricRight = "=H-40";
note = L;
unicode = 76;
}
{
glyphname = M;
kernLeft = H;
kernRight = H;
layers = (
{
anchors = (
{
name = bottom;
pos = (456,0);
},
{
name = top;
pos = (456,775);
}
);
annotations = (
{
pos = (450.333,200.084);
text = "down more";
type = Text;
}
);
layerId = m01;
shapes = (
{
closed = 1;
nodes = (
(70,775,l),
(87,703,o),
(88,628,o),
(88,553,cs),
(88,222,ls),
(88,147,o),
(87,72,o),
(70,0,c),
(201,0,l),
(184,72,o),
(183,147,o),
(183,222,cs),
(183,582,l),
(432,0,l),
(480,0,l),
(729,582,l),
(729,222,ls),
(729,147,o),
(728,72,o),
(711,0,c),
(847,0,l),
(830,72,o),
(829,147,o),
(829,222,cs),
(829,553,ls),
(829,628,o),
(830,703,o),
(847,775,c),
(722,775,l),
(462,173,l),
(205,775,l)
);
}
);
width = 917;
}
);
metricLeft = H;
metricRight = H;
note = M;
unicode = 77;
}
{
glyphname = N;
kernLeft = H;
kernRight = H;
layers = (
{
anchors = (
{
name = bottom;
pos = (403,0);
},
{
name = top;
pos = (403,775);
}
);
layerId = m01;
shapes = (
{
closed = 1;
nodes = (
(70,775,l),
(87,703,o),
(88,628,o),
(88,553,cs),
(88,222,ls),
(88,147,o),
(87,72,o),
(70,0,c),
(201,0,l),
(184,72,o),
(183,147,o),
(183,222,cs),
(183,640,l),
(596,0,l),
(740,0,l),
(723,72,o),
(722,148,o),
(722,223,cs),
(722,554,ls),
(722,629,o),
(723,704,o),
(740,776,c),
(609,776,l),
(626,704,o),
(627,629,o),
(627,554,cs),
(627,130,l),
(211,775,l)
);
}
);
width = 810;
}
);
metricLeft = H;
metricRight = H;
note = N;
unicode = 78;
}
{
glyphname = O;
kernLeft = O;
kernRight = O;
layers = (
{
anchors = (
{
name = bottom;
pos = (429,0);
},
{
name = center;
pos = (429,388);
},
{
name = ogonek;
pos = (771,10);
},
{
name = top;
pos = (429,775);
},
{
name = topleft;
pos = (20,775);
},
{
name = topright;
pos = (837,775);
}
);
layerId = m01;
shapes = (
{
closed = 1;
nodes = (
(657,-14,o),
(822,161,o),
(822,388,cs),
(822,617,o),
(657,789,o),
(428,789,cs),
(199,789,o),
(35,615,o),
(35,388,cs),
(35,161,o),
(199,-14,o),
(428,-14,cs)
);
},
{
closed = 1;
nodes = (
(254,66,o),
(143,216,o),
(143,388,cs),
(143,560,o),
(254,709,o),
(427,709,cs),
(601,709,o),
(714,562,o),
(714,388,cs),
(714,216,o),
(601,66,o),
(427,66,cs)
);
}
);
width = 857;
}
);
note = O;
unicode = 79;
}
{
glyphname = P;
kernLeft = H;
kernRight = P;
layers = (
{
anchors = (
{
name = bottom;
pos = (304,0);
},
{
name = top;
pos = (304,775);
}
);
layerId = m01;
shapes = (
{
closed = 1;
nodes = (
(70,775,l),
(87,703,o),
(88,628,o),
(88,553,cs),
(88,222,ls),
(88,147,o),
(87,72,o),
(70,0,c),
(206,0,l),
(189,72,o),
(188,147,o),
(188,222,cs),
(188,294,l),
(282,294,ls),
(438,294,o),
(562,392,o),
(562,535,cs),
(562,678,o),
(438,775,o),
(282,775,cs)
);
},
{
closed = 1;
nodes = (
(188,695,l),
(252,695,ls),
(388,695,o),
(454,638,o),
(454,535,cs),
(454,432,o),
(388,374,o),
(252,374,cs),
(188,374,l)
);
}
);
width = 597;
}
);
metricLeft = H;
metricRight = O;
note = P;
unicode = 80;
}
{
glyphname = R;
kernLeft = H;
kernRight = R;
layers = (
{
anchors = (
{
name = bottom;
pos = (318,0);
},
{
name = top;
pos = (318,775);
}
);
layerId = m01;
shapes = (
{
closed = 1;
nodes = (
(70,775,l),
(87,703,o),
(88,628,o),
(88,553,cs),
(88,222,ls),
(88,147,o),
(87,72,o),
(70,0,c),
(206,0,l),
(189,72,o),
(188,147,o),
(188,222,cs),
(188,321,l),
(254,321,l),
(376,151,l),
(422,80,o),
(448,38,o),
(465,0,c),
(620,0,l),
(581,40,o),
(546,81,o),
(514,123,c),
(370,332,l),
(480,360,o),
(562,440,o),
(562,550,cs),
(562,688,o),
(433,775,o),
(282,775,cs)
);
},
{
closed = 1;
nodes = (
(188,695,l),
(252,695,ls),
(383,695,o),
(454,648,o),
(454,550,cs),
(454,452,o),
(383,401,o),
(252,401,cs),
(188,401,l)
);
}
);
width = 660;
}
);
metricLeft = H;
metricRight = "=H-30";
unicode = 82;
}
{
glyphname = S;
kernLeft = S;
kernRight = S;
layers = (
{
anchors = (
{
name = bottom;
pos = (291,0);
},
{
name = top;
pos = (291,775);
}
);
annotations = (
{
pos = (330,483);
text = "Widen up";
type = Text;
},
{
pos = (1546,1677);
type = Text;
},
{
pos = (1373,1799);
type = Text;
}
);
layerId = m01;
shapes = (
{
closed = 1;
nodes = (
(516,706,o),
(456,789,o),
(304,789,cs),
(153,789,o),
(52,706,o),
(54,595,cs),
(57,459,o),
(192,412,o),
(304,357,cs),
(381,320,o),
(442,277,o),
(442,199,cs),
(442,121,o),
(381,66,o),
(294,66,cs),
(189,66,o),
(131,140,o),
(105,206,c),
(102,206,l),
(35,97,l),
(52,76,o),
(128,-14,o),
(294,-14,cs),
(451,-14,o),
(547,72,o),
(547,199,cs),
(547,320,o),
(447,386,o),
(346,434,cs),
(250,480,o),
(158,510,o),
(158,592,cs),
(158,663,o),
(218,709,o),
(302,709,cs),
(399,709,o),
(451,644,o),
(466,588,c),
(469,588,l),
(524,696,l)
);
}
);
width = 582;
}
);
metricLeft = O;
metricRight = O;
note = S;
unicode = 83;
}
{
glyphname = U;
kernLeft = H;
kernRight = H;
layers = (
{
anchors = (
{
name = bottom;
pos = (366,0);
},
{
name = ogonek;
pos = (487,10);
},
{
name = top;
pos = (366,775);
},
{
name = topright;
pos = (721,775);
}
);
hints = (
{
place = (715,30);
type = Stem;
}
);
layerId = m01;
shapes = (
{
closed = 1;
nodes = (
(55,775,l),
(72,703,o),
(73,628,o),
(73,553,cs),
(73,343,ls),
(73,120,o),
(158,-14,o),
(362,-14,cs),
(566,-14,o),
(651,120,o),
(651,343,cs),
(651,553,ls),
(651,628,o),
(652,703,o),
(669,775,c),
(533,775,l),
(550,703,o),
(551,628,o),
(551,553,cs),
(551,343,ls),
(551,186,o),
(521,67,o),
(362,67,cs),
(203,67,o),
(173,186,o),
(173,343,cs),
(173,553,ls),
(173,628,o),
(174,703,o),
(191,775,c)
);
}
);
width = 724;
}
);
metricLeft = "=H-15";
metricRight = "=H-15";
unicode = 85;
}
{
glyphname = V;
kernLeft = V;
kernRight = V;
layers = (
{
anchors = (
{
name = bottom;
pos = (407,0);
},
{
name = top;
pos = (407,775);
}
);
layerId = m01;
shapes = (
{
closed = 1;
nodes = (
(457,0,l),
(705,600,l),
(731,659,o),
(757,709,o),
(799,775,c),
(663,775,l),
(658,749,o),
(651,722,o),
(639,685,c),
(407,123,l),
(225,563,l),
(180,676,o),
(164,728,o),
(156,775,c),
(15,775,l),
(67,694,o),
(92,639,o),
(126,559,c),
(357,0,l)
);
}
);
width = 814;
}
);
note = V;
unicode = 86;
}
{
glyphname = W;
kernLeft = V;
kernRight = V;
layers = (
{
anchors = (
{
name = bottom;
pos = (598,0);
},
{
name = top;
pos = (598,775);
}
);
layerId = m01;
shapes = (
{
closed = 1;
nodes = (
(899,0,l),
(1099,596,ls),
(1121,658,o),
(1142,713,o),
(1180,775,c),
(1036,775,l),
(1028,732,o),
(1020,673,o),
(992,590,cs),
(847,156,l),
(639,775,l),
(556,775,l),
(348,156,l),
(203,589,ls),
(175,673,o),
(167,732,o),
(159,775,c),
(15,775,l),
(53,713,o),
(74,658,o),
(96,596,cs),
(296,0,l),
(396,0,l),
(597,600,l),
(799,0,l)
);
}
);
width = 1195;
}
);
metricLeft = V;
metricRight = V;
note = W;
unicode = 87;
}
{
glyphname = Y;
kernLeft = Y;
kernRight = Y;
layers = (
{
anchors = (
{
name = bottom;
pos = (363,0);
},
{
name = top;
pos = (363,775);
},
{
name = topleft;
pos = (20,775);
}
);
layerId = m01;
shapes = (
{
closed = 1;
nodes = (
(311,147,o),
(310,72,o),
(293,0,c),
(429,0,l),
(412,72,o),
(411,147,o),
(411,222,cs),
(411,373,l),
(575,615,ls),
(615,671,o),
(655,724,o),
(705,775,c),
(550,775,l),
(530,729,o),
(496,670,o),
(427,566,cs),
(364,472,l),
(281,591,ls),
(220,683,o),
(189,731,o),
(170,775,c),
(20,775,l),
(69,725,o),
(108,674,o),
(148,618,cs),
(311,377,l),
(311,222,ls)
);
}
);
width = 725;
}
);
note = Y;
unicode = 89;
}
{
glyphname = Z;
kernLeft = Z;
kernRight = Z;
layers = (
{
anchors = (
{
name = bottom;
pos = (356,0);
},
{
name = center;
pos = (356,388);
},
{
name = top;
pos = (356,775);
}
);
layerId = m01;
shapes = (
{
closed = 1;
nodes = (
(84,775,l),
(60,657,l),
(114,685,o),
(168,695,o),
(277,695,cs),
(483,695,l),
(67,46,l),
(67,0,l),
(627,0,l),
(651,118,l),
(597,90,o),
(543,80,o),
(434,80,cs),
(202,80,l),
(620,729,l),
(620,775,l)
);
}
);
width = 711;
}
);
metricLeft = "=H-10";
metricRight = "=H-10";
note = Z;
unicode = 90;
}
{
glyphname = bracketright;
layers = (
{
layerId = m01;
shapes = (
{
closed = 1;
nodes = (
(50,840,l),
(50,735,l),
(87,755,o),
(129,760,o),
(207,760,cs),
(294,760,l),
(294,-40,l),
(207,-40,ls),
(129,-40,o),
(87,-35,o),
(50,-15,c),
(50,-120,l),
(389,-120,l),
(389,840,l)
);
}
);
width = 449;
}
);
metricLeft = "=H-20";
metricRight = "=H-10";
note = bracketright;
unicode = 93;
}
{
glyphname = underscore;
layers = (
{
layerId = m01;
shapes = (
{
closed = 1;
nodes = (
(560,0,l),
(494,-13,o),
(463,-13,o),
(388,-13,cs),
(192,-13,ls),
(117,-13,o),
(86,-13,o),
(20,0,c),
(20,-106,l),
(86,-93,o),
(117,-93,o),
(192,-93,cs),
(388,-93,ls),
(463,-93,o),
(494,-93,o),
(560,-106,c)
);
}
);
width = 580;
}
);
note = underscore;
unicode = 95;
}
{
glyphname = b;
kernLeft = h;
kernRight = o;
layers = (
{
anchors = (
{
name = bottom;
pos = (314,0);
},
{
name = center;
pos = (157,628);
},
{
name = top;
pos = (314,550);
}
);
annotations = (
{
pos = (364,430);
type = Text;
}
);
layerId = m01;
shapes = (
{
closed = 1;
nodes = (
(78,147,o),
(77,72,o),
(60,0,c),
(165,0,l),
(171,89,l),
(175,89,l),
(188,63,o),
(233,-14,o),
(346,-14,cs),
(488,-14,o),
(592,108,o),
(592,274,cs),
(592,438,o),
(482,564,o),
(339,564,cs),
(268,564,o),
(213,533,o),
(179,476,c),
(172,476,l),
(173,728,l),
(173,780,l),
(40,752,l),
(40,746,l),
(67,701,o),
(78,661,o),
(78,553,cs),
(78,222,ls)
);
},
{
closed = 1;
nodes = (
(172,305,l),
(180,394,o),
(231,484,o),
(338,484,cs),
(433,484,o),
(494,401,o),
(494,274,cs),
(494,147,o),
(429,66,o),
(325,66,cs),
(236,66,o),
(177,125,o),
(171,215,c)
);
}
);
width = 622;
}
);
metricLeft = l;
metricRight = o;
note = b;
unicode = 98;
}
{
glyphname = c;
kernLeft = o;
kernRight = c;
layers = (
{
anchors = (
{
name = bottom;
pos = (263,0);
},
{
name = top;
pos = (263,550);
}
);
layerId = m01;
shapes = (
{
closed = 1;
nodes = (
(479,139,l),
(465,118,o),
(429,76,o),
(350,67,cs),
(226,53,o),
(128,151,o),
(128,274,cs),
(128,397,o),
(198,484,o),
(305,484,cs),
(394,484,o),
(437,434,o),
(468,392,c),
(475,392,l),
(478,506,l),
(439,535,o),
(388,564,o),
(305,564,cs),
(156,564,o),
(30,437,o),
(30,274,cs),
(30,111,o),
(156,-14,o),
(305,-14,cs),
(435,-14,o),
(492,64,o),
(515,108,c)
);
}
);
width = 530;
}
);
metricLeft = o;
metricRight = "=o-15";
note = c;
unicode = 99;
}
{
glyphname = e;
kernLeft = o;
kernRight = e;
layers = (
{
anchors = (
{
name = bottom;
pos = (280,0);
},
{
name = ogonek;
pos = (388,0);
},
{
name = top;
pos = (280,550);
}
);
layerId = m01;
shapes = (
{
closed = 1;
nodes = (
(479,139,l),
(465,118,o),
(429,76,o),
(350,67,cs),
(226,53,o),
(128,151,o),
(128,274,c),
(534,274,l),
(534,437,o),
(453,564,o),
(304,564,cs),
(155,564,o),
(30,437,o),
(30,274,cs),
(30,111,o),
(156,-14,o),
(305,-14,cs),
(435,-14,o),
(492,64,o),
(515,108,c)
);
},
{
closed = 1;
nodes = (
(155,431,o),
(208,484,o),
(294,484,cs),
(373,484,o),
(415,431,o),
(430,349,c),
(136,349,l)
);
}
);
width = 559;
}
);
metricLeft = o;
metricRight = "=o-5";
note = e;
unicode = 101;
}
{
glyphname = g;
kernLeft = g;
kernRight = g;
layers = (
{
anchors = (
{
name = bottom;
pos = (296,-260);
},
{
name = top;
pos = (296,550);
}
);
layerId = m01;
shapes = (
{
closed = 1;
nodes = (
(392,108,o),
(511,196,o),
(511,335,cs),
(511,393,o),
(490,442,o),
(459,480,c),
(555,480,l),
(565,560,l),
(518,551,o),
(483,549,o),
(361,549,c),
(336,559,o),
(309,564,o),
(283,564,cs),
(158,564,o),
(56,474,o),
(56,335,cs),
(56,268,o),
(79,213,o),
(118,174,c),
(96,159,o),
(61,127,o),
(61,79,cs),
(61,48,o),
(74,28,o),
(96,15,c),
(61,-8,o),
(20,-48,o),
(20,-106,cs),
(20,-206,o),
(123,-276,o),
(286,-276,cs),
(417,-276,o),
(572,-226,o),
(572,-88,cs),
(572,39,o),
(424,55,o),
(322,61,cs),
(234,67,o),
(181,65,o),
(159,82,cs),
(139,97,o),
(148,125,o),
(157,143,c),
(193,120,o),
(237,108,o),
(283,108,cs)
);
},
{
closed = 1;
nodes = (
(199,188,o),
(154,258,o),
(154,335,cs),
(154,411,o),
(199,483,o),
(282,483,cs),
(365,483,o),
(413,412,o),
(413,335,cs),
(413,258,o),
(365,188,o),
(282,188,cs)
);
},
{
closed = 1;
nodes = (
(118,-68,o),
(137,-29,o),
(167,-6,c),
(211,-12,o),
(265,-12,o),
(317,-15,cs),
(393,-19,o),
(474,-19,o),
(474,-87,cs),
(474,-159,o),
(382,-196,o),
(283,-196,cs),
(186,-196,o),
(118,-165,o),
(118,-101,cs)
);
}
);
width = 582;
}
);
metricLeft = "=o-10";
metricRight = "=o-20";
note = g;
unicode = 103;
}
{
glyphname = i;
kernLeft = i;
kernRight = i;
layers = (
{
anchors = (
{
name = bottom;
pos = (123,0);
}
);
layerId = m01;
shapes = (
{
closed = 1;
nodes = (
(40,706,l),
(122,623,l),
(205,706,l),
(122,788,l)
);
},
{
closed = 1;
nodes = (
(85,147,o),
(84,72,o),
(67,0,c),
(198,0,l),
(181,72,o),
(180,147,o),
(180,222,cs),
(180,505,l),
(180,557,l),
(47,529,l),
(47,523,l),
(74,478,o),
(85,438,o),
(85,330,cs),
(85,222,ls)
);
}
);
width = 250;
}
);
note = i;
unicode = 105;
}
{
glyphname = m;
kernLeft = n;
kernRight = n;
layers = (
{
anchors = (
{
name = bottom;
pos = (446,0);
},
{
name = top;
pos = (446,550);
}
);
layerId = m01;
shapes = (
{
closed = 1;
nodes = (
(411,222,ls),
(411,147,o),
(410,72,o),
(393,0,c),
(524,0,l),
(507,72,o),
(506,147,o),
(506,222,cs),
(506,299,l),
(506,311,ls),
(512,398,o),
(531,484,o),
(645,484,cs),
(750,484,o),
(743,379,o),
(743,299,cs),
(743,222,ls),
(743,147,o),
(742,72,o),
(725,0,c),
(856,0,l),
(839,72,o),
(838,147,o),
(838,222,cs),
(838,299,ls),
(838,427,o),
(821,564,o),
(658,564,cs),
(568,564,o),
(520,508,o),
(491,459,c),
(485,459,l),
(462,520,o),
(416,564,o),
(327,564,cs),
(237,564,o),
(209,525,o),
(180,476,c),
(173,476,l),
(173,505,l),
(173,557,l),
(40,529,l),
(40,523,l),
(67,478,o),
(78,438,o),
(78,330,cs),
(78,222,ls),
(78,147,o),
(77,72,o),
(60,0,c),
(191,0,l),
(174,72,o),
(173,147,o),
(173,222,cs),
(173,295,l),
(178,388,o),
(203,484,o),
(313,484,cs),
(413,484,o),
(411,379,o),
(411,299,cs)
);
}
);
width = 896;
}
);
metricLeft = "=n";
metricRight = "=n";
note = m;
unicode = 109;
}
{
glyphname = n;
kernLeft = n;
kernRight = n;
layers = (
{
anchors = (
{
name = bottom;
pos = (290,0);
},
{
name = top;
pos = (288,550);
}
);
layerId = m01;
shapes = (
{
closed = 1;
nodes = (
(431,222,ls),
(431,147,o),
(430,72,o),
(413,0,c),
(544,0,l),
(527,72,o),
(526,147,o),
(526,222,cs),
(526,299,ls),
(526,431,o),
(497,564,o),
(337,564,cs),
(239,564,o),
(209,525,o),
(180,476,c),
(173,476,l),
(173,505,l),
(173,557,l),
(40,529,l),
(40,523,l),
(67,478,o),
(78,438,o),
(78,330,cs),
(78,222,ls),
(78,147,o),
(77,72,o),
(60,0,c),
(191,0,l),
(174,72,o),
(173,147,o),
(173,222,cs),
(173,295,l),
(178,388,o),
(205,484,o),
(323,484,cs),
(425,484,o),
(431,383,o),
(431,299,cs)
);
}
);
width = 584;
}
);
note = n;
unicode = 110;
}
{
glyphname = o;
kernLeft = o;
kernRight = o;
layers = (
{
anchors = (
{
name = bottom;
pos = (306,0);
},
{
name = center;
pos = (306,275);
},
{
name = ogonek;
pos = (554,10);
},
{
name = top;
pos = (306,550);
},
{
name = topright;
pos = (596,550);
}
);
layerId = m01;
shapes = (
{
closed = 1;
nodes = (
(464,-14,o),
(581,111,o),
(581,274,cs),
(581,437,o),
(464,564,o),
(305,564,cs),
(146,564,o),
(30,437,o),
(30,274,cs),
(30,111,o),
(146,-14,o),
(305,-14,cs)
);
},
{
closed = 1;
nodes = (
(201,66,o),
(128,151,o),
(128,274,cs),
(128,397,o),
(201,484,o),
(304,484,cs),
(407,484,o),
(483,398,o),
(483,274,cs),
(483,151,o),
(407,66,o),
(304,66,cs)
);
}
);
width = 611;
}
);
note = o;
unicode = 111;
}
{
glyphname = s;
kernLeft = s;
kernRight = s;
layers = (
{
anchors = (
{
name = bottom;
pos = (210,0);
},
{
name = top;
pos = (210,550);
}
);
layerId = m01;
shapes = (
{
closed = 1;
nodes = (
(340,528,o),
(296,564,o),
(222,564,cs),
(119,564,o),
(39,514,o),
(39,411,cs),
(39,312,o),
(121,279,o),
(193,248,cs),
(249,224,o),
(298,201,o),
(298,150,cs),
(298,97,o),
(258,66,o),
(198,66,cs),
(112,66,o),
(58,150,o),
(53,182,c),
(49,182,l),
(35,71,l),
(49,38,o),
(112,-14,o),
(198,-14,cs),
(299,-14,o),
(385,43,o),
(385,147,cs),
(385,257,o),
(301,291,o),
(229,321,cs),
(174,344,o),
(125,365,o),
(125,416,cs),
(125,462,o),
(164,484,o),
(221,484,cs),
(272,484,o),
(321,455,o),
(342,406,c),
(346,406,l),
(358,507,l)
);
}
);
width = 420;
}
);
note = s;
unicode = 115;
}
{
glyphname = t;
kernLeft = t;
kernRight = t;
layers = (
{
anchors = (
{
name = bottom;
pos = (192,0);
},
{
name = center;
pos = (192,275);
},
{
name = top;
pos = (192,666);
},
{
name = topright;
pos = (216,785);
}
);
hints = (
{
horizontal = 1;
origin = (0,10);
target = down;
type = TopGhost;
}
);
layerId = m01;
shapes = (
{
closed = 1;
nodes = (
(307,-14,o),
(346,21,o),
(366,71,c),
(338,109,l),
(321,84,o),
(301,70,o),
(268,70,cs),
(216,70,o),
(198,95,o),
(198,170,cs),
(198,481,l),
(277,480,o),
(309,478,o),
(349,470,c),
(339,550,l),
(198,550,l),
(198,666,l),
(188,666,l),
(20,481,l),
(20,470,l),
(53,476,o),
(102,481,o),
(103,481,c),
(103,166,ls),
(103,47,o),
(151,-14,o),
(244,-14,cs)
);
}
);
width = 386;
}
);
metricRight = "=20";
note = t;
unicode = 116;
}
{
glyphname = v;
kernLeft = v;
kernRight = v;
layers = (
{
anchors = (
{
name = bottom;
pos = (305,0);
},
{
name = top;
pos = (305,550);
}
);
layerId = m01;
shapes = (
{
closed = 1;
nodes = (
(468,550,l),
(459,502,o),
(443,453,o),
(405,358,cs),
(306,112,l),
(211,358,ls),
(174,453,o),
(157,502,o),
(149,550,c),
(15,550,l),
(48,501,o),
(74,450,o),
(116,350,cs),
(260,0,l),
(350,0,l),
(494,350,ls),
(536,450,o),
(562,501,o),
(595,550,c)
);
}
);
width = 610;
}
);
metricLeft = "=V";
metricRight = "=V";
note = v;
unicode = 118;
}
{
glyphname = x;
kernLeft = x;
kernRight = x;
layers = (
{
anchors = (
{
name = bottom;
pos = (286,0);
},
{
name = top;
pos = (286,550);
}
);
hints = (
{
horizontal = 1;
origin = (0,35);
target = up;
type = BottomGhost;
}
);
layerId = m01;
shapes = (
{
closed = 1;
nodes = (
(340,273,l),
(457,442,l),
(486,480,o),
(514,515,o),
(549,550,c),
(423,550,l),
(411,524,o),
(394,494,o),
(363,445,c),
(291,343,l),
(196,476,ls),
(176,507,o),
(164,530,o),
(155,550,c),
(25,550,l),
(53,521,o),
(77,493,o),
(100,463,c),
(233,266,l),
(105,83,l),
(84,54,o),
(61,29,o),
(30,0,c),
(156,0,l),
(167,26,o),
(185,56,o),
(217,104,cs),
(282,196,l),
(346,107,ls),
(379,57,o),
(397,27,o),
(409,0,c),
(541,0,l),
(514,27,o),
(491,54,o),
(469,83,c)
);
}
);
width = 571;
}
);
note = x;
unicode = 120;
}
{
glyphname = y;
kernLeft = v;
kernRight = v;
layers = (
{
anchors = (
{
name = bottom;
pos = (305,0);
},
{
name = top;
pos = (305,550);
}
);
layerId = m01;
shapes = (
{
closed = 1;
nodes = (
(494,350,ls),
(536,450,o),
(562,501,o),
(595,550,c),
(468,550,l),
(459,502,o),
(443,453,o),
(405,358,cs),
(306,112,l),
(211,358,ls),
(174,453,o),
(157,502,o),
(149,550,c),
(15,550,l),
(48,501,o),
(74,450,o),
(116,350,cs),
(258,4,l),
(209,-116,o),
(167,-199,o),
(127,-259,c),
(263,-259,l),
(273,-201,o),
(301,-117,o),
(350,0,cs)
);
}
);
width = 610;
}
);
metricLeft = v;
metricRight = v;
note = y;
unicode = 121;
}
{
glyphname = bar;
kernLeft = H;
kernRight = H;
layers = (
{
layerId = m01;
shapes = (
{
closed = 1;
nodes = (
(70,840,l),
(70,-120,l),
(165,-120,l),
(165,840,l)
);
}
);
width = 235;
}
);
metricLeft = "=H";
metricRight = H;
unicode = 124;
}
{
glyphname = asciitilde;
layers = (
{
layerId = m01;
shapes = (
{
closed = 1;
nodes = (
(394,355,o),
(382,331,o),
(355,331,cs),
(279,331,o),
(246,431,o),
(138,431,cs),
(53,431,o),
(20,362,o),
(20,271,c),
(105,271,l),
(105,327,o),
(117,351,o),
(144,351,cs),
(220,351,o),
(253,251,o),
(361,251,cs),
(446,251,o),
(479,320,o),
(479,411,c),
(394,411,l)
);
}
);
width = 499;
}
);
unicode = 126;
}
{
glyphname = cent;
kernLeft = o;
kernRight = c;
layers = (
{
layerId = m01;
shapes = (
{
closed = 1;
nodes = (
(479,139,l),
(465,118,o),
(429,76,o),
(350,67,cs),
(337,66,l),
(337,482,l),
(405,471,o),
(441,429,o),
(468,392,c),
(475,392,l),
(478,506,l),
(445,531,o),
(403,555,o),
(340,562,c),
(342,598,o),
(347,633,o),
(355,668,c),
(244,668,l),
(252,633,o),
(257,596,o),
(259,560,c),
(131,537,o),
(30,420,o),
(30,274,cs),
(30,128,o),
(131,13,o),
(259,-10,c),
(257,-45,o),
(252,-81,o),
(244,-115,c),
(355,-115,l),
(347,-81,o),
(343,-47,o),
(340,-12,c),
(446,1,o),
(494,68,o),
(515,108,c)
);
},
{
closed = 1;
nodes = (
(128,380,o),
(180,459,o),
(262,479,c),
(262,77,l),
(183,104,o),
(128,182,o),
(128,274,cs)
);
}
);
width = 530;
}
);
metricLeft = c;
metricRight = c;
unicode = 162;
}
{
glyphname = sterling;
kernLeft = S;
kernRight = S;
layers = (
{
layerId = m01;
shapes = (
{
closed = 1;
nodes = (
(527,0,l),
(551,118,l),
(497,90,o),
(443,80,o),
(334,80,cs),
(167,80,l),
(216,143,o),
(250,223,o),
(250,313,cs),
(249,330,l),
(271,330,ls),
(346,330,o),
(377,330,o),
(443,317,c),
(443,423,l),
(377,410,o),
(346,410,o),
(271,410,cs),
(227,410,l),
(202,470,o),
(163,523,o),
(163,591,cs),
(163,662,o),
(223,708,o),
(307,708,cs),
(404,708,o),
(456,643,o),
(471,587,c),
(474,587,l),
(529,695,l),
(521,705,o),
(461,788,o),
(309,788,cs),
(158,788,o),
(57,705,o),
(59,594,cs),
(61,509,o),
(95,461,o),
(120,411,c),
(89,412,o),
(62,415,o),
(23,423,c),
(23,317,l),
(72,327,o),
(102,329,o),
(145,330,c),
(146,313,ls),
(146,189,o),
(82,92,o),
(10,0,c)
);
}
);
width = 586;
}
);
metricRight = S;
unicode = 163;
}
{
glyphname = brokenbar;
kernLeft = H;
kernRight = H;
layers = (
{
layerId = m01;
shapes = (
{
closed = 1;
nodes = (
(155,454,l),
(155,840,l),
(60,840,l),
(60,454,l)
);
},
{
closed = 1;
nodes = (
(155,-120,l),
(155,266,l),
(60,266,l),
(60,-120,l)
);
}
);
width = 215;
}
);
unicode = 166;
}
{
glyphname = section;
kernLeft = s;
kernRight = s;
layers = (
{
layerId = m01;
shapes = (
{
closed = 1;
nodes = (
(299,-14,o),
(385,44,o),
(385,148,cs),
(385,209,o),
(359,246,o),
(324,273,c),
(362,291,o),
(385,326,o),
(385,372,cs),
(385,463,o),
(301,516,o),
(229,546,cs),
(174,569,o),
(125,590,o),
(125,641,cs),
(125,687,o),
(164,709,o),
(221,709,cs),
(272,709,o),
(321,680,o),
(342,631,c),
(346,631,l),
(358,732,l),
(340,753,o),
(296,789,o),
(222,789,cs),
(119,789,o),
(39,739,o),
(39,636,cs),
(39,580,o),
(65,545,o),
(101,520,c),
(61,499,o),
(39,455,o),
(39,412,cs),
(39,329,o),
(121,280,o),
(193,249,cs),
(249,225,o),
(298,202,o),
(298,151,cs),
(298,98,o),
(258,66,o),
(198,66,cs),
(112,66,o),
(58,151,o),
(53,183,c),
(49,183,l),
(35,72,l),
(49,39,o),
(112,-14,o),
(198,-14,cs)
);
},
{
closed = 1;
nodes = (
(229,322,ls),
(174,345,o),
(125,367,o),
(125,417,cs),
(125,440,o),
(135,469,o),
(157,489,c),
(193,473,ls),
(249,449,o),
(298,431,o),
(298,375,cs),
(298,348,o),
(287,323,o),
(266,306,c)
);
}
);
width = 420;
}
);
metricLeft = s;
metricRight = s;
unicode = 167;
}
{
glyphname = copyright;
kernLeft = O;
kernRight = O;
layers = (
{
layerId = m01;
shapes = (
{
closed = 1;
nodes = (
(657,-14,o),
(822,161,o),
(822,388,cs),
(822,617,o),
(657,789,o),
(428,789,cs),
(199,789,o),
(35,615,o),
(35,388,cs),
(35,161,o),
(199,-14,o),
(428,-14,cs)
);
},
{
closed = 1;
nodes = (
(249,61,o),
(138,211,o),
(138,388,cs),
(138,565,o),
(249,714,o),
(427,714,cs),
(606,714,o),
(719,567,o),
(719,388,cs),
(719,211,o),
(606,61,o),
(427,61,cs)
);
},
{
closed = 1;
nodes = (
(558,297,l),
(548,282,o),
(523,252,o),
(466,245,cs),
(379,236,o),
(314,299,o),
(314,386,cs),
(314,474,o),
(359,530,o),
(435,530,cs),
(498,530,o),
(528,495,o),
(550,465,c),
(555,465,l),
(557,551,l),
(530,571,o),
(493,592,o),
(435,592,cs),
(329,592,o),
(239,502,o),
(239,386,cs),
(239,271,o),
(329,182,o),
(435,182,cs),
(527,182,o),
(567,237,o),
(584,269,c)
);
}
);
width = 857;
}
);
metricLeft = O;
metricRight = O;
unicode = 169;
}
{
glyphname = ordfeminine;
layers = (
{
layerId = m01;
shapes = (
{
closed = 1;
nodes = (
(35,487,o),
(82,443,o),
(143,443,cs),
(184,443,o),
(215,462,o),
(230,498,c),
(233,498,l),
(233,447,l),
(319,464,l),
(319,468,l),
(302,497,o),
(296,524,o),
(296,583,cs),
(296,633,ls),
(296,742,o),
(261,789,o),
(173,789,cs),
(129,789,o),
(91,777,o),
(59,754,c),
(61,685,l),
(65,685,l),
(90,714,o),
(127,735,o),
(165,735,cs),
(208,735,o),
(228,715,o),
(232,657,c),
(112,672,o),
(35,630,o),
(35,546,cs)
);
},
{
closed = 1;
nodes = (
(101,602,o),
(149,622,o),
(233,613,c),
(233,564,ls),
(233,524,o),
(193,497,o),
(155,497,cs),
(124,497,o),
(101,518,o),
(101,546,cs)
);
}
);
width = 349;
}
);
unicode = 170;
}
{
glyphname = guillemetleft;
layers = (
{
layerId = m01;
shapes = (
{
closed = 1;
nodes = (
(20,275,l),
(288,43,l),
(312,62,l),
(159,275,l),
(312,488,l),
(288,507,l)
);
},
{
closed = 1;
nodes = (
(245,275,l),
(513,43,l),
(537,62,l),
(384,275,l),
(537,488,l),
(513,507,l)
);
}
);
width = 557;
}
);
note = guillemotleft;
unicode = 171;
}
{
glyphname = logicalnot;
layers = (
{
layerId = m01;
shapes = (
{
closed = 1;
nodes = (
(42,262,l),
(25,154,l),
(62,174,o),
(101,182,o),
(179,182,cs),
(396,182,l),
(396,172,ls),
(396,97,o),
(396,66,o),
(383,0,c),
(489,0,l),
(476,66,o),
(476,97,o),
(476,172,cs),
(476,260,l),
(476,262,l)
);
}
);
width = 519;
}
);
unicode = 172;
}
{
glyphname = registered;
kernLeft = O;
kernRight = O;
layers = (
{
hints = (
{
horizontal = 1;
origin = (2,17);
target = up;
type = BottomGhost;
}
);
layerId = m01;
shapes = (
{
closed = 1;
nodes = (
(657,-14,o),
(822,161,o),
(822,388,cs),
(822,617,o),
(657,789,o),
(428,789,cs),
(199,789,o),
(35,615,o),
(35,388,cs),
(35,161,o),
(199,-14,o),
(428,-14,cs)
);
},
{
closed = 1;
nodes = (
(249,61,o),
(138,211,o),
(138,388,cs),
(138,565,o),
(249,714,o),
(427,714,cs),
(606,714,o),
(719,567,o),
(719,388,cs),
(719,211,o),
(606,61,o),
(427,61,cs)
);
},
{
closed = 1;
nodes = (
(297,600,l),
(305,567,o),
(308,531,o),
(308,470,cs),
(308,323,ls),
(308,262,o),
(305,226,o),
(297,193,c),
(377,193,l),
(369,226,o),
(366,262,o),
(366,323,cs),
(366,355,l),
(395,355,l),
(447,281,ls),
(474,243,o),
(490,216,o),
(499,193,c),
(590,193,l),
(554,229,o),
(544,240,o),
(534,255,cs),
(463,361,l),
(523,377,o),
(565,426,o),
(565,479,cs),
(565,546,o),
(497,600,o),
(411,600,cs)
);
},
{
closed = 1;
nodes = (
(366,543,l),
(394,543,ls),
(462,543,o),
(498,521,o),
(498,479,cs),
(498,436,o),
(460,411,o),
(394,411,cs),
(366,411,l)
);
}
);
width = 857;
}
);
metricLeft = O;
metricRight = O;
unicode = 174;
}
{
glyphname = degree;
kernLeft = O;
kernRight = O;
layers = (
{
layerId = m01;
shapes = (
{
closed = 1;
nodes = (
(243,515,o),
(304,576,o),
(304,652,cs),
(304,728,o),
(243,789,o),
(167,789,cs),
(91,789,o),
(30,728,o),
(30,652,cs),
(30,576,o),
(91,515,o),
(167,515,cs)
);
},
{
closed = 1;
nodes = (
(129,583,o),
(98,614,o),
(98,652,cs),
(98,690,o),
(129,721,o),
(167,721,cs),
(205,721,o),
(236,690,o),
(236,652,cs),
(236,614,o),
(205,583,o),
(167,583,cs)
);
}
);
width = 334;
}
);
metricLeft = o;
metricRight = o;
unicode = 176;
}
{
glyphname = plusminus;
layers = (
{
layerId = m01;
shapes = (
{
closed = 1;
nodes = (
(358,160,l),
(346,221,o),
(345,252,o),
(345,315,c),
(408,315,ls),
(483,315,o),
(514,315,o),
(580,302,c),
(580,408,l),
(514,395,o),
(483,395,o),
(408,395,cs),
(345,395,l),
(345,458,o),
(346,489,o),
(358,550,c),
(252,550,l),
(264,489,o),
(265,458,o),
(265,395,c),
(202,395,ls),
(127,395,o),
(96,395,o),
(30,408,c),
(30,302,l),
(96,315,o),
(127,315,o),
(202,315,cs),
(265,315,l),
(265,252,o),
(264,221,o),
(252,160,c)
);
},
{
closed = 1;
nodes = (
(30,-13,l),
(96,0,o),
(127,0,o),
(202,0,cs),
(408,0,ls),
(483,0,o),
(514,0,o),
(580,-13,c),
(580,93,l),
(514,80,o),
(483,80,o),
(408,80,cs),
(202,80,ls),
(127,80,o),
(96,80,o),
(30,93,c)
);
}
);
width = 610;
}
);
unicode = 177;
}
{
glyphname = paragraph;
kernRight = H;
layers = (
{
layerId = m01;
shapes = (
{
closed = 1;
nodes = (
(255,775,ls),
(132,775,o),
(35,699,o),
(35,585,cs),
(35,473,o),
(132,395,o),
(255,395,cs),
(271,395,l),
(271,102,ls),
(271,27,o),
(270,-48,o),
(253,-120,c),
(366,-120,l),
(366,695,l),
(449,695,l),
(449,-120,l),
(562,-120,l),
(545,-48,o),
(544,27,o),
(544,102,cs),
(544,553,ls),
(544,628,o),
(545,703,o),
(562,775,c)
);
}
);
width = 632;
}
);
metricRight = H;
unicode = 182;
}
{
glyphname = periodcentered;
layers = (
{
layerId = m01;
shapes = (
{
closed = 1;
nodes = (
(40,368,l),
(118,290,l),
(196,368,l),
(118,446,l)
);
}
);
width = 236;
}
);
note = periodcentered;
unicode = 183;
}
{
glyphname = ordmasculine;
layers = (
{
layerId = m01;
shapes = (
{
closed = 1;
nodes = (
(289,443,o),
(359,518,o),
(359,616,cs),
(359,713,o),
(289,789,o),
(194,789,cs),
(99,789,o),
(30,713,o),
(30,616,cs),
(30,518,o),
(99,443,o),
(194,443,cs)
);
},
{
closed = 1;
nodes = (
(135,499,o),
(96,545,o),
(96,616,cs),
(96,686,o),
(135,733,o),
(194,733,cs),
(252,733,o),
(293,687,o),
(293,616,cs),
(293,545,o),
(252,499,o),
(194,499,cs)
);
}
);
width = 389;
}
);
metricLeft = o;
metricRight = o;
unicode = 186;
}
{
glyphname = onehalf;
layers = (
{
layerId = m01;
shapes = (
{
closed = 1;
nodes = (
(494,775,l),
(483,732,o),
(457,683,o),
(402,582,cs),
(175,185,ls),
(122,97,o),
(76,33,o),
(50,0,c),
(178,0,l),
(187,36,o),
(208,80,o),
(247,153,cs),
(492,580,ls),
(552,681,o),
(595,741,o),
(622,775,c)
);
},
{
closed = 1;
nodes = (
(498,344,l),
(500,344,l),
(530,398,o),
(572,415,o),
(614,415,cs),
(658,415,o),
(691,393,o),
(691,337,cs),
(691,275,o),
(591,180,o),
(565,150,cs),
(458,28,l),
(458,0,l),
(774,0,l),
(788,81,l),
(756,64,o),
(723,58,o),
(658,58,cs),
(566,58,l),
(683,180,o),
(769,255,o),
(769,339,cs),
(769,414,o),
(714,473,o),
(619,473,cs),
(532,473,o),
(486,428,o),
(473,411,c)
);
},
{
closed = 1;
nodes = (
(77,409,o),
(76,364,o),
(66,321,c),
(155,321,l),
(144,364,o),
(144,409,o),
(144,454,cs),
(144,789,l),
(30,711,l),
(30,703,l),
(67,703,o),
(77,694,o),
(77,629,cs),
(77,454,ls)
);
}
);
width = 848;
}
);
metricLeft = "=one";
metricRight = "=two";
unicode = 189;
}
{
glyphname = Oslash;
kernLeft = O;
kernRight = O;
layers = (
{
hints = (
{
place = (427,30);
type = Stem;
},
{
horizontal = 1;
origin = (1,8);
target = down;
type = TopGhost;
}
);
layerId = m01;
shapes = (
{
closed = 1;
nodes = (
(670,775,l),
(666,764,o),
(658,748,o),
(645,728,c),
(584,767,o),
(510,789,o),
(428,789,cs),
(199,789,o),
(35,615,o),
(35,388,cs),
(35,274,o),
(77,173,o),
(147,100,c),
(111,57,o),
(79,21,o),
(52,0,c),
(184,0,l),
(190,15,o),
(200,31,o),
(212,47,c),
(273,8,o),
(346,-14,o),
(428,-14,cs),
(657,-14,o),
(822,161,o),
(822,388,cs),
(822,502,o),
(781,602,o),
(711,674,c),
(749,719,o),
(781,754,o),
(802,775,c)
);
},
{
closed = 1;
nodes = (
(365,66,o),
(311,85,o),
(267,118,c),
(287,142,l),
(625,568,l),
(649,598,l),
(691,541,o),
(714,467,o),
(714,388,cs),
(714,216,o),
(601,66,o),
(427,66,cs)
);
},
{
closed = 1;
nodes = (
(143,560,o),
(254,709,o),
(427,709,cs),
(492,709,o),
(548,689,o),
(593,654,c),
(545,593,l),
(217,187,l),
(209,177,l),
(167,234,o),
(143,309,o),
(143,388,cs)
);
}
);
width = 857;
}
);
metricLeft = O;
metricRight = O;
unicode = 216;
}
{
glyphname = Thorn;
kernLeft = H;
kernRight = P;
layers = (
{
layerId = m01;
shapes = (
{
closed = 1;
nodes = (
(70,775,l),
(87,703,o),
(88,628,o),
(88,553,cs),
(88,222,ls),
(88,147,o),
(87,72,o),
(70,0,c),
(206,0,l),
(195,48,o),
(190,97,o),
(189,147,c),
(272,147,ls),
(428,147,o),
(552,245,o),
(552,388,cs),
(552,531,o),
(428,628,o),
(272,628,cs),
(189,628,l),
(190,678,o),
(195,727,o),
(206,775,c)
);
},
{
closed = 1;
nodes = (
(188,548,l),
(242,548,ls),
(378,548,o),
(444,491,o),
(444,388,cs),
(444,285,o),
(378,227,o),
(242,227,cs),
(188,227,l)
);
}
);
width = 582;
}
);
metricLeft = H;
metricRight = b;
unicode = 222;
}
{
glyphname = eth;
kernLeft = o;
kernRight = O;
layers = (
{
layerId = m01;
shapes = (
{
closed = 1;
nodes = (
(457,-14,o),
(571,141,o),
(590,378,cs),
(596,452,o),
(587,524,o),
(562,586,c),
(588,584,o),
(613,581,o),
(647,574,c),
(647,670,l),
(597,660,o),
(567,658,o),
(522,657,c),
(464,738,o),
(369,790,o),
(237,789,c),
(237,709,l),
(301,709,o),
(355,690,o),
(398,658,c),
(363,659,o),
(335,662,o),
(293,670,c),
(293,574,l),
(357,587,o),
(388,587,o),
(459,587,c),
(487,538,o),
(502,477,o),
(501,407,c),
(479,464,o),
(427,524,o),
(316,524,cs),
(167,524,o),
(44,416,o),
(31,254,cs),
(21,129,o),
(87,-14,o),
(274,-14,cs)
);
},
{
closed = 1;
nodes = (
(139,377,o),
(222,444,o),
(315,444,cs),
(408,444,o),
(474,378,o),
(464,254,cs),
(454,131,o),
(360,66,o),
(274,66,cs),
(180,66,o),
(119,132,o),
(129,254,cs)
);
}
);
width = 662;
}
);
metricLeft = o;
metricRight = "=O-20";
unicode = 240;
}
{
glyphname = divide;
layers = (
{
layerId = m01;
shapes = (
{
closed = 1;
nodes = (
(20,222,l),
(86,235,o),
(117,235,o),
(192,235,cs),
(398,235,ls),
(473,235,o),
(504,235,o),
(570,222,c),
(570,328,l),
(504,315,o),
(473,315,o),
(398,315,cs),
(192,315,ls),
(117,315,o),
(86,315,o),
(20,328,c)
);
},
{
closed = 1;
nodes = (
(228,108,l),
(295,41,l),
(362,108,l),
(295,175,l)
);
},
{
closed = 1;
nodes = (
(228,440,l),
(295,373,l),
(362,440,l),
(295,507,l)
);
}
);
width = 600;
}
);
unicode = 247;
}
{
glyphname = oslash;
kernLeft = o;
kernRight = o;
layers = (
{
layerId = m01;
shapes = (
{
closed = 1;
nodes = (
(474,-14,o),
(591,111,o),
(591,274,cs),
(591,349,o),
(566,416,o),
(524,467,c),
(556,503,o),
(581,531,o),
(600,550,c),
(468,550,l),
(466,544,o),
(462,535,o),
(457,525,c),
(416,550,o),
(368,564,o),
(315,564,cs),
(156,564,o),
(40,437,o),
(40,274,cs),
(40,198,o),
(65,131,o),
(108,80,c),
(79,46,o),
(52,18,o),
(30,0,c),
(162,0,l),
(165,8,o),
(169,16,o),
(174,24,c),
(215,0,o),
(263,-14,o),
(315,-14,cs)
);
},
{
closed = 1;
nodes = (
(281,66,o),
(250,75,o),
(225,91,c),
(265,142,l),
(423,343,l),
(464,394,l),
(482,361,o),
(493,320,o),
(493,274,cs),
(493,151,o),
(417,66,o),
(314,66,cs)
);
},
{
closed = 1;
nodes = (
(138,397,o),
(211,484,o),
(314,484,cs),
(350,484,o),
(383,473,o),
(410,454,c),
(391,428,o),
(368,399,o),
(343,368,cs),
(195,187,l),
(167,153,l),
(149,186,o),
(138,227,o),
(138,274,cs)
);
}
);
width = 630;
}
);
metricLeft = o;
metricRight = o;
unicode = 248;
}
{
glyphname = Dcroat;
kernLeft = H;
kernRight = O;
layers = (
{
layerId = m01;
shapes = (
{
closed = 1;
nodes = (
(138,775,l),
(155,703,o),
(156,628,o),
(156,553,cs),
(156,431,l),
(105,431,o),
(74,433,o),
(20,444,c),
(20,348,l),
(74,359,o),
(105,361,o),
(156,361,c),
(156,222,ls),
(156,147,o),
(155,72,o),
(138,0,c),
(401,0,ls),
(673,0,o),
(797,215,o),
(797,388,cs),
(797,561,o),
(673,775,o),
(401,775,cs)
);
},
{
closed = 1;
nodes = (
(256,361,l),
(306,361,o),
(336,359,o),
(390,348,c),
(390,444,l),
(336,433,o),
(306,431,o),
(256,431,c),
(256,695,l),
(371,695,ls),
(623,695,o),
(689,521,o),
(689,388,cs),
(689,255,o),
(623,80,o),
(371,80,cs),
(256,80,l)
);
}
);
width = 832;
}
);
metricRight = D;
unicode = 272;
}
{
glyphname = dcroat;
kernLeft = o;
kernRight = l;
layers = (
{
layerId = m01;
shapes = (
{
closed = 1;
nodes = (
(544,587,l),
(582,586,o),
(611,583,o),
(656,574,c),
(656,670,l),
(611,661,o),
(582,658,o),
(544,657,c),
(545,780,l),
(412,752,l),
(412,746,l),
(428,720,o),
(438,695,o),
(444,657,c),
(406,658,o),
(377,661,o),
(332,670,c),
(332,574,l),
(380,583,o),
(409,586,o),
(450,587,c),
(450,476,l),
(443,476,l),
(410,533,o),
(353,564,o),
(283,564,cs),
(140,564,o),
(30,437,o),
(30,274,cs),
(30,113,o),
(139,-14,o),
(276,-14,cs),
(351,-14,o),
(415,24,o),
(447,89,c),
(450,89,l),
(449,-6,l),
(582,22,l),
(582,28,l),
(555,73,o),
(544,113,o),
(544,221,cs)
);
},
{
closed = 1;
nodes = (
(450,207,l),
(442,123,o),
(382,66,o),
(297,66,cs),
(194,66,o),
(128,147,o),
(128,274,cs),
(128,406,o),
(186,484,o),
(284,484,cs),
(390,484,o),
(441,397,o),
(450,308,c)
);
}
);
width = 666;
}
);
metricLeft = d;
metricRight = "=l-40";
unicode = 273;
}
{
glyphname = Hbar;
kernLeft = H;
kernRight = H;
layers = (
{
layerId = m01;
shapes = (
{
closed = 1;
nodes = (
(94,775,l),
(106,725,o),
(110,673,o),
(111,621,c),
(83,623,o),
(57,626,o),
(20,633,c),
(20,537,l),
(57,544,o),
(83,547,o),
(112,549,c),
(112,222,ls),
(112,147,o),
(111,72,o),
(94,0,c),
(230,0,l),
(213,72,o),
(212,147,o),
(212,222,cs),
(212,351,l),
(613,351,l),
(613,222,ls),
(613,147,o),
(612,72,o),
(595,0,c),
(731,0,l),
(714,72,o),
(713,147,o),
(713,222,cs),
(713,549,l),
(742,547,o),
(767,544,o),
(804,537,c),
(804,633,l),
(768,626,o),
(742,623,o),
(714,621,c),
(715,673,o),
(719,725,o),
(731,775,c),
(595,775,l),
(607,724,o),
(611,672,o),
(612,620,c),
(213,620,l),
(214,672,o),
(218,724,o),
(230,775,c)
);
},
{
closed = 1;
nodes = (
(212,550,l),
(613,550,l),
(613,431,l),
(212,431,l)
);
}
);
width = 824;
}
);
unicode = 294;
}
{
glyphname = idotless;
kernLeft = i;
kernRight = i;
layers = (
{
anchors = (
{
name = bottom;
pos = (131,0);
},
{
name = ogonek;
pos = (202,0);
},
{
name = top;
pos = (131,550);
}
);
layerId = m01;
shapes = (
{
closed = 1;
nodes = (
(94,147,o),
(93,72,o),
(76,0,c),
(207,0,l),
(190,72,o),
(189,147,o),
(189,222,cs),
(189,505,l),
(189,557,l),
(56,529,l),
(56,523,l),
(83,478,o),
(94,438,o),
(94,330,cs),
(94,222,ls)
);
}
);
width = 257;
}
);
metricRight = l;
unicode = 305;
}
{
glyphname = IJ;
kernLeft = H;
kernRight = H;
layers = (
{
layerId = m01;
shapes = (
{
closed = 1;
nodes = (
(70,775,l),
(87,703,o),
(88,628,o),
(88,553,cs),
(88,222,ls),
(88,147,o),
(87,72,o),
(70,0,c),
(206,0,l),
(189,72,o),
(188,147,o),
(188,222,cs),
(188,553,ls),
(188,628,o),
(189,703,o),
(206,775,c)
);
},
{
closed = 1;
nodes = (
(347,775,l),
(364,703,o),
(365,628,o),
(365,553,cs),
(365,62,ls),
(365,-65,o),
(336,-129,o),
(241,-130,cs),
(142,-131,o),
(93,-64,o),
(73,-45,c),
(70,-46,l),
(89,-172,l),
(101,-181,o),
(148,-216,o),
(244,-216,cs),
(389,-216,o),
(465,-135,o),
(465,40,cs),
(465,553,ls),
(465,628,o),
(466,703,o),
(483,775,c)
);
}
);
width = 553;
}
);
metricLeft = H;
metricRight = H;
unicode = 306;
}
{
glyphname = Lslash;
kernLeft = L;
kernRight = K;
layers = (
{
layerId = m01;
shapes = (
{
closed = 1;
nodes = (
(573,0,l),
(597,118,l),
(543,90,o),
(489,80,o),
(380,80,cs),
(240,80,l),
(240,340,l),
(328,368,ls),
(391,386,o),
(442,399,o),
(470,399,c),
(470,505,l),
(432,483,o),
(387,467,o),
(327,447,cs),
(240,420,l),
(240,553,ls),
(240,628,o),
(241,703,o),
(258,775,c),
(122,775,l),
(139,703,o),
(140,628,o),
(140,553,cs),
(140,389,l),
(132,386,ls),
(69,368,o),
(18,355,o),
(-10,355,c),
(-10,249,l),
(28,271,o),
(73,287,o),
(133,307,cs),
(140,309,l),
(140,222,ls),
(140,147,o),
(139,72,o),
(122,0,c)
);
}
);
width = 662;
}
);
unicode = 321;
}
{
glyphname = lslash;
kernLeft = n;
kernRight = l;
layers = (
{
layerId = m01;
shapes = (
{
closed = 1;
nodes = (
(170,147,o),
(169,72,o),
(152,0,c),
(283,0,l),
(266,72,o),
(265,147,o),
(265,222,cs),
(265,336,l),
(331,355,o),
(386,370,o),
(415,370,c),
(415,383,l),
(265,337,l),
(415,383,l),
(415,476,l),
(385,458,o),
(351,445,o),
(309,431,cs),
(265,417,l),
(265,728,l),
(265,780,l),
(132,752,l),
(132,746,l),
(159,701,o),
(170,661,o),
(170,553,cs),
(170,389,l),
(104,370,o),
(49,355,o),
(20,355,c),
(20,342,l),
(170,388,l),
(20,342,l),
(20,249,l),
(50,267,o),
(84,280,o),
(126,294,cs),
(170,308,l),
(170,222,ls)
);
}
);
width = 435;
}
);
unicode = 322;
}
{
glyphname = oe;
kernLeft = o;
kernRight = e;
layers = (
{
layerId = m01;
shapes = (
{
closed = 1;
nodes = (
(408,-14,o),
(490,33,o),
(538,108,c),
(588,33,o),
(671,-14,o),
(763,-14,cs),
(893,-14,o),
(950,64,o),
(973,108,c),
(937,139,l),
(923,118,o),
(887,76,o),
(808,67,cs),
(684,53,o),
(586,151,o),
(586,274,c),
(992,274,l),
(992,437,o),
(911,564,o),
(762,564,cs),
(670,564,o),
(588,516,o),
(538,441,c),
(489,516,o),
(408,564,o),
(310,564,cs),
(151,564,o),
(35,437,o),
(35,274,cs),
(35,111,o),
(151,-14,o),
(310,-14,cs)
);
},
{
closed = 1;
nodes = (
(206,66,o),
(133,151,o),
(133,274,cs),
(133,397,o),
(206,484,o),
(309,484,cs),
(412,484,o),
(488,398,o),
(488,274,cs),
(488,151,o),
(412,66,o),
(309,66,cs)
);
},
{
closed = 1;
nodes = (
(613,431,o),
(666,484,o),
(752,484,cs),
(831,484,o),
(873,431,o),
(888,349,c),
(594,349,l)
);
}
);
width = 1017;
}
);
metricRight = e;
unicode = 339;
}
{
glyphname = tcedilla;
kernLeft = t;
kernRight = t;
layers = (
{
anchors = (
{
name = bottom;
pos = (212,-260);
}
);
layerId = m01;
shapes = (
{
closed = 1;
nodes = (
(333,-260,o),
(395,-219,o),
(395,-160,cs),
(395,-109,o),
(341,-67,o),
(268,-68,c),
(305,0,l),
(250,0,l),
(194,-112,l),
(204,-110,ls),
(272,-96,o),
(312,-128,o),
(312,-158,cs),
(312,-191,o),
(284,-211,o),
(242,-211,cs),
(190,-211,o),
(150,-182,o),
(128,-128,c),
(125,-128,l),
(87,-193,l),
(122,-237,o),
(173,-260,o),
(242,-260,cs)
);
},
{
ref = t;
}
);
width = 386;
}
);
unicode = 355;
}
{
glyphname = Schwa;
kernLeft = O;
kernRight = O;
layers = (
{
layerId = m01;
shapes = (
{
closed = 1;
nodes = (
(101,587,l),
(120,616,o),
(211,698,o),
(321,706,cs),
(490,719,o),
(627,587,o),
(627,389,c),
(35,389,l),
(35,163,o),
(159,-14,o),
(363,-14,cs),
(590,-14,o),
(735,163,o),
(735,389,cs),
(735,616,o),
(580,789,o),
(353,789,cs),
(173,789,o),
(94,680,o),
(61,620,c)
);
},
{
closed = 1;
nodes = (
(621,309,l),
(599,168,o),
(515,66,o),
(377,66,cs),
(247,66,o),
(168,156,o),
(148,309,c)
);
}
);
width = 770;
}
);
metricLeft = O;
metricRight = O;
unicode = 399;
}
{
glyphname = circumflexcomb;
layers = (
{
anchors = (
{
name = _top;
pos = (222,550);
},
{
name = top;
pos = (222,0);
}
);
layerId = m01;
shapes = (
{
closed = 1;
nodes = (
(223,734,l),
(305,615,l),
(395,615,l),
(269,775,l),
(176,775,l),
(50,615,l),
(140,615,l)
);
}
);
width = 445;
}
);
unicode = 770;
}
{
glyphname = tildecomb;
layers = (
{
anchors = (
{
name = _top;
pos = (229,550);
},
{
name = top;
pos = (229,0);
}
);
layerId = m01;
shapes = (
{
closed = 1;
nodes = (
(344,706,o),
(333,680,o),
(306,680,cs),
(265,680,o),
(236,775,o),
(153,775,cs),
(88,775,o),
(55,714,o),
(55,623,c),
(115,623,l),
(115,679,o),
(126,710,o),
(153,710,cs),
(194,710,o),
(223,615,o),
(306,615,cs),
(371,615,o),
(404,671,o),
(404,762,c),
(344,762,l)
);
}
);
width = 459;
}
);
unicode = 771;
}
{
glyphname = dotaccentcomb;
layers = (
{
anchors = (
{
name = _top;
pos = (130,550);
},
{
name = top;
pos = (130,0);
}
);
layerId = m01;
shapes = (
{
closed = 1;
nodes = (
(174,615,o),
(210,651,o),
(210,695,cs),
(210,739,o),
(174,775,o),
(130,775,cs),
(86,775,o),
(50,739,o),
(50,695,cs),
(50,651,o),
(86,615,o),
(130,615,cs)
);
}
);
width = 260;
}
);
unicode = 775;
}
{
glyphname = dieresiscomb;
layers = (
{
anchors = (
{
name = _top;
pos = (254,550);
},
{
name = top;
pos = (254,785);
}
);
layerId = m01;
shapes = (
{
closed = 1;
nodes = (
(50,702,l),
(128,624,l),
(206,702,l),
(128,780,l)
);
},
{
closed = 1;
nodes = (
(301,702,l),
(379,624,l),
(457,702,l),
(379,780,l)
);
}
);
width = 507;
}
);
unicode = 776;
}
{
glyphname = hungarumlautcomb;
layers = (
{
anchors = (
{
name = _top;
pos = (179,550);
},
{
name = top;
pos = (179,0);
}
);
layerId = m01;
shapes = (
{
closed = 1;
nodes = (
(236,775,l),
(111,775,l),
(45,615,l),
(115,615,l)
);
},
{
closed = 1;
nodes = (
(405,775,l),
(280,775,l),
(214,615,l),
(284,615,l)
);
}
);
width = 460;
}
);
unicode = 779;
}
{
glyphname = commaturnedabovecomb;
layers = (
{
anchors = (
{
name = _top;
pos = (154,550);
},
{
name = top;
pos = (154,0);
}
);
layerId = m01;
shapes = (
{
closed = 1;
nodes = (
(154,666,l),
(113,707,l),
(140,779,l),
(119,785,l),
(50,666,l),
(102,614,l)
);
}
);
width = 204;
}
);
unicode = 786;
}
{
glyphname = commaaccentcomb;
layers = (
{
anchors = (
{
name = _bottom;
},
{
name = bottom;
}
);
layerId = m01;
shapes = (
{
closed = 1;
nodes = (
(-52,-103,l),
(-11,-144,l),
(-38,-216,l),
(-17,-222,l),
(52,-103,l),
(0,-51,l)
);
}
);
width = 300;
}
);
unicode = 806;
}
{
glyphname = cedillacomb;
layers = (
{
anchors = (
{
name = _bottom;
pos = (175,0);
},
{
name = bottom;
pos = (175,-260);
}
);
layerId = m01;
shapes = (
{
closed = 1;
nodes = (
(167,-110,ls),
(235,-96,o),
(275,-128,o),
(275,-158,cs),
(275,-191,o),
(247,-211,o),
(205,-211,cs),
(153,-211,o),
(113,-182,o),
(91,-128,c),
(88,-128,l),
(50,-193,l),
(85,-237,o),
(136,-260,o),
(205,-260,cs),
(296,-260,o),
(358,-219,o),
(358,-160,cs),
(358,-109,o),
(304,-67,o),
(231,-68,c),
(268,0,l),
(213,0,l),
(157,-112,l)
);
}
);
width = 408;
}
);
unicode = 807;
}
{
glyphname = baht;
kernLeft = H;
kernRight = B;
layers = (
{
layerId = m01;
shapes = (
{
closed = 1;
nodes = (
(70,775,l),
(87,703,o),
(88,628,o),
(88,553,cs),
(88,222,ls),
(88,147,o),
(87,72,o),
(70,0,c),
(269,0,l),
(266,-39,o),
(262,-77,o),
(253,-115,c),
(364,-115,l),
(355,-77,o),
(351,-39,o),
(348,0,c),
(359,0,ls),
(480,0,o),
(605,77,o),
(605,220,cs),
(605,313,o),
(553,378,o),
(483,412,c),
(530,445,o),
(562,497,o),
(562,570,cs),
(562,696,o),
(453,759,o),
(348,772,c),
(350,812,o),
(355,851,o),
(364,889,c),
(253,889,l),
(262,852,o),
(266,814,o),
(269,775,c)
);
},
{
closed = 1;
nodes = (
(188,362,l),
(271,362,l),
(271,75,l),
(188,75,l)
);
},
{
closed = 1;
nodes = (
(188,700,l),
(271,700,l),
(271,442,l),
(188,442,l)
);
},
{
closed = 1;
nodes = (
(346,362,l),
(437,358,o),
(496,318,o),
(497,220,cs),
(498,122,o),
(437,80,o),
(346,75,c)
);
},
{
closed = 1;
nodes = (
(346,694,l),
(409,682,o),
(454,647,o),
(454,570,cs),
(454,488,o),
(412,456,o),
(346,446,c)
);
}
);
width = 650;
}
);
metricLeft = B;
metricRight = B;
unicode = 3647;
}
{
glyphname = endash;
kernLeft = hyp;
kernRight = hyp;
layers = (
{
layerId = m01;
shapes = (
{
closed = 1;
nodes = (
(560,394,l),
(494,381,o),
(463,381,o),
(388,381,cs),
(192,381,ls),
(117,381,o),
(86,381,o),
(20,394,c),
(20,288,l),
(86,301,o),
(117,301,o),
(192,301,cs),
(388,301,ls),
(463,301,o),
(494,301,o),
(560,288,c)
);
}
);
width = 580;
}
);
note = endash;
unicode = 8211;
}
{
glyphname = quoteleft;
kernLeft = quote;
kernRight = quote;
layers = (
{
layerId = m01;
shapes = (
{
closed = 1;
nodes = (
(196,602,l),
(135,663,l),
(175,772,l),
(144,780,l),
(40,602,l),
(118,524,l)
);
}
);
width = 236;
}
);
note = quoteleft;
unicode = 8216;
}
{
glyphname = quoteright;
kernLeft = quote;
kernRight = quote;
layers = (
{
layerId = m01;
shapes = (
{
closed = 1;
nodes = (
(40,702,l),
(101,641,l),
(61,532,l),
(92,524,l),
(196,702,l),
(118,780,l)
);
}
);
width = 236;
}
);
note = quoteright;
unicode = 8217;
}
{
glyphname = quotedblright;
kernLeft = quote;
kernRight = quote;
layers = (
{
layerId = m01;
shapes = (
{
closed = 1;
nodes = (
(40,702,l),
(101,641,l),
(61,532,l),
(92,524,l),
(196,702,l),
(118,780,l)
);
},
{
closed = 1;
nodes = (
(226,702,l),
(287,641,l),
(247,532,l),
(278,524,l),
(382,702,l),
(304,780,l)
);
}
);
width = 422;
}
);
note = quotedblright;
unicode = 8221;
}
{
glyphname = quotedblbase;
kernLeft = period;
kernRight = period;
layers = (
{
layerId = m01;
shapes = (
{
closed = 1;
nodes = (
(40,64,l),
(101,3,l),
(61,-106,l),
(92,-114,l),
(196,64,l),
(118,142,l)
);
},
{
closed = 1;
nodes = (
(226,64,l),
(287,3,l),
(247,-106,l),
(278,-114,l),
(382,64,l),
(304,142,l)
);
}
);
width = 422;
}
);
note = quotedblbase;
unicode = 8222;
}
{
glyphname = bullet;
layers = (
{
layerId = m01;
shapes = (
{
closed = 1;
nodes = (
(40,368,l),
(142,266,l),
(244,368,l),
(142,470,l)
);
}
);
width = 284;
}
);
note = bullet;
unicode = 8226;
}
{
glyphname = ellipsis;
kernLeft = period;
kernRight = period;
layers = (
{
layerId = m01;
shapes = (
{
closed = 1;
nodes = (
(40,64,l),
(118,-14,l),
(196,64,l),
(118,142,l)
);
},
{
closed = 1;
nodes = (
(226,64,l),
(304,-14,l),
(382,64,l),
(304,142,l)
);
},
{
closed = 1;
nodes = (
(412,64,l),
(490,-14,l),
(568,64,l),
(490,142,l)
);
}
);
width = 608;
}
);
metricLeft = period;
metricRight = period;
note = ellipsis;
unicode = 8230;
}
{
glyphname = guilsinglleft;
layers = (
{
layerId = m01;
shapes = (
{
closed = 1;
nodes = (
(20,275,l),
(288,43,l),
(312,62,l),
(159,275,l),
(312,488,l),
(288,507,l)
);
}
);
width = 332;
}
);
note = guilsinglleft;
unicode = 8249;
}
{
glyphname = sheqel;
kernLeft = H;
kernRight = H;
layers = (
{
layerId = m01;
shapes = (
{
closed = 1;
nodes = (
(70,775,l),
(87,703,o),
(88,628,o),
(88,553,cs),
(88,222,ls),
(88,147,o),
(87,72,o),
(70,0,c),
(206,0,l),
(189,72,o),
(188,147,o),
(188,222,cs),
(188,695,l),
(252,695,ls),
(383,695,o),
(432,638,o),
(432,530,cs),
(432,444,ls),
(432,369,o),
(431,294,o),
(414,222,c),
(550,222,l),
(533,294,o),
(532,369,o),
(532,444,cs),
(532,530,ls),
(532,678,o),
(433,775,o),
(282,775,cs)
);
},
{
closed = 1;
nodes = (
(718,4,l),
(701,76,o),
(700,151,o),
(700,226,cs),
(700,557,ls),
(700,632,o),
(701,707,o),
(718,779,c),
(582,779,l),
(599,707,o),
(600,632,o),
(600,557,cs),
(600,84,l),
(536,84,ls),
(405,84,o),
(356,141,o),
(356,249,cs),
(356,335,ls),
(356,410,o),
(357,485,o),
(374,557,c),
(238,557,l),
(255,485,o),
(256,410,o),
(256,335,cs),
(256,249,ls),
(256,101,o),
(355,4,o),
(506,4,cs)
);
}
);
width = 788;
}
);
metricLeft = H;
metricRight = H;
unicode = 8362;
}
{
glyphname = euro;
kernLeft = O;
kernRight = C;
layers = (
{
layerId = m01;
shapes = (
{
closed = 1;
nodes = (
(798,208,l),
(745,126,o),
(664,66,o),
(522,66,cs),
(399,66,o),
(304,144,o),
(262,254,c),
(378,254,ls),
(453,254,o),
(484,254,o),
(550,241,c),
(550,337,l),
(484,324,o),
(453,324,o),
(378,324,cs),
(243,324,l),
(240,345,o),
(238,366,o),
(238,388,cs),
(238,403,o),
(239,418,o),
(241,433,c),
(378,433,ls),
(453,433,o),
(484,433,o),
(550,420,c),
(550,516,l),
(484,503,o),
(453,503,o),
(378,503,cs),
(256,503,l),
(294,623,o),
(392,709,o),
(522,709,cs),
(658,709,o),
(743,649,o),
(796,568,c),
(800,568,l),
(784,713,l),
(718,764,o),
(644,789,o),
(522,789,cs),
(335,789,o),
(191,671,o),
(145,503,c),
(100,504,o),
(70,506,o),
(20,516,c),
(20,420,l),
(65,429,o),
(94,432,o),
(132,433,c),
(130,388,ls),
(130,366,o),
(132,345,o),
(134,324,c),
(95,325,o),
(66,328,o),
(20,337,c),
(20,241,l),
(72,251,o),
(103,253,o),
(150,254,c),
(201,96,o),
(342,-14,o),
(522,-14,cs),
(649,-14,o),
(720,11,o),
(786,62,c),
(802,208,l)
);
}
);
width = 842;
}
);
metricRight = C;
unicode = 8364;
}
{
glyphname = ruble;
kernLeft = H;
kernRight = P;
layers = (
{
layerId = m01;
shapes = (
{
closed = 1;
nodes = (
(143,775,l),
(160,703,o),
(161,628,o),
(161,553,cs),
(161,222,l),
(161,213,l),
(124,214,o),
(95,217,o),
(50,226,c),
(50,130,l),
(94,139,o),
(123,142,o),
(160,143,c),
(158,94,o),
(154,47,o),
(143,0,c),
(279,0,l),
(268,47,o),
(264,95,o),
(262,143,c),
(288,143,ls),
(363,143,o),
(394,143,o),
(460,130,c),
(460,226,l),
(394,213,o),
(363,213,o),
(288,213,cs),
(261,213,l),
(261,222,l),
(261,294,l),
(355,294,ls),
(511,294,o),
(635,392,o),
(635,535,cs),
(635,678,o),
(511,775,o),
(355,775,cs)
);
},
{
closed = 1;
nodes = (
(261,695,l),
(325,695,ls),
(461,695,o),
(527,638,o),
(527,535,cs),
(527,432,o),
(461,374,o),
(325,374,cs),
(261,374,l)
);
}
);
width = 670;
}
);
metricLeft = "=P-20";
metricRight = P;
unicode = 8381;
}
{
glyphname = oneeighth;
layers = (
{
layerId = m01;
shapes = (
{
closed = 1;
nodes = (
(494,775,l),
(483,732,o),
(457,683,o),
(402,582,cs),
(175,185,ls),
(122,97,o),
(76,33,o),
(50,0,c),
(178,0,l),
(187,36,o),
(208,80,o),
(247,153,cs),
(492,580,ls),
(552,681,o),
(595,741,o),
(622,775,c)
);
},
{
closed = 1;
nodes = (
(77,409,o),
(76,364,o),
(66,321,c),
(155,321,l),
(144,364,o),
(144,409,o),
(144,454,cs),
(144,789,l),
(30,711,l),
(30,703,l),
(67,703,o),
(77,694,o),
(77,629,cs),
(77,454,ls)
);
},
{
closed = 1;
nodes = (
(690,-14,o),
(758,42,o),
(758,125,cs),
(758,176,o),
(734,217,o),
(693,242,c),
(721,265,o),
(737,298,o),
(737,335,cs),
(737,404,o),
(680,463,o),
(596,463,cs),
(514,463,o),
(456,403,o),
(456,335,cs),
(456,298,o),
(472,265,o),
(500,242,c),
(460,217,o),
(435,175,o),
(435,125,cs),
(435,41,o),
(504,-14,o),
(596,-14,cs)
);
},
{
closed = 1;
nodes = (
(545,44,o),
(507,75,o),
(507,125,cs),
(507,173,o),
(542,210,o),
(596,210,cs),
(651,210,o),
(686,173,o),
(686,125,cs),
(686,75,o),
(648,44,o),
(596,44,cs)
);
},
{
closed = 1;
nodes = (
(551,267,o),
(525,300,o),
(525,335,cs),
(525,370,o),
(552,405,o),
(596,405,cs),
(641,405,o),
(669,370,o),
(669,335,cs),
(669,300,o),
(641,267,o),
(596,267,cs)
);
}
);
width = 793;
}
);
metricRight = eight;
unicode = 8539;
}
{
glyphname = seveneighths;
layers = (
{
layerId = m01;
shapes = (
{
closed = 1;
nodes = (
(270,0,l),
(279,36,o),
(300,80,o),
(339,153,cs),
(584,580,ls),
(644,681,o),
(687,741,o),
(714,775,c),
(586,775,l),
(575,732,o),
(549,683,o),
(494,582,cs),
(267,185,ls),
(214,97,o),
(168,33,o),
(142,0,c)
);
},
{
closed = 1;
nodes = (
(205,310,l),
(211,353,o),
(229,393,o),
(246,433,cs),
(378,747,l),
(378,775,l),
(58,775,l),
(50,694,l),
(82,711,o),
(109,717,o),
(174,717,cs),
(298,717,l),
(158,401,ls),
(143,370,o),
(128,338,o),
(108,310,c)
);
},
{
closed = 1;
nodes = (
(782,-14,o),
(850,42,o),
(850,125,cs),
(850,176,o),
(826,217,o),
(785,242,c),
(813,265,o),
(829,298,o),
(829,335,cs),
(829,404,o),
(772,463,o),
(688,463,cs),
(606,463,o),
(548,403,o),
(548,335,cs),
(548,298,o),
(564,265,o),
(592,242,c),
(552,217,o),
(527,175,o),
(527,125,cs),
(527,41,o),
(596,-14,o),
(688,-14,cs)
);
},
{
closed = 1;
nodes = (
(637,44,o),
(599,75,o),
(599,125,cs),
(599,173,o),
(634,210,o),
(688,210,cs),
(743,210,o),
(778,173,o),
(778,125,cs),
(778,75,o),
(740,44,o),
(688,44,cs)
);
},
{
closed = 1;
nodes = (
(643,267,o),
(617,300,o),
(617,335,cs),
(617,370,o),
(644,405,o),
(688,405,cs),
(733,405,o),
(761,370,o),
(761,335,cs),
(761,300,o),
(733,267,o),
(688,267,cs)
);
}
);
width = 885;
}
);
metricLeft = seven;
metricRight = eight;
unicode = 8542;
}
{
glyphname = partialdiff;
layers = (
{
layerId = m01;
shapes = (
{
closed = 1;
nodes = (
(457,-14,o),
(571,141,o),
(590,378,cs),
(608,597,o),
(491,790,o),
(237,789,c),
(237,709,l),
(402,708,o),
(504,587,o),
(501,407,c),
(479,464,o),
(427,524,o),
(316,524,cs),
(167,524,o),
(44,416,o),
(31,254,cs),
(21,129,o),
(87,-14,o),
(274,-14,cs)
);
},
{
closed = 1;
nodes = (
(139,377,o),
(222,444,o),
(315,444,cs),
(408,444,o),
(474,378,o),
(464,254,cs),
(454,131,o),
(360,66,o),
(274,66,cs),
(180,66,o),
(119,132,o),
(129,254,cs)
);
}
);
width = 627;
}
);
metricLeft = o;
metricRight = O;
unicode = 8706;
}
{
glyphname = product;
layers = (
{
layerId = m01;
shapes = (
{
closed = 1;
nodes = (
(88,147,o),
(87,72,o),
(70,0,c),
(201,0,l),
(184,72,o),
(183,147,o),
(183,222,cs),
(183,695,l),
(468,695,l),
(468,222,ls),
(468,147,o),
(467,72,o),
(450,0,c),
(581,0,l),
(564,72,o),
(563,147,o),
(563,222,cs),
(563,553,ls),
(563,628,o),
(564,703,o),
(581,775,c),
(70,775,l),
(87,703,o),
(88,628,o),
(88,553,cs),
(88,222,ls)
);
}
);
width = 651;
}
);
metricLeft = H;
metricRight = H;
unicode = 8719;
}
{
glyphname = summation;
layers = (
{
layerId = m01;
shapes = (
{
closed = 1;
nodes = (
(60,775,l),
(60,729,l),
(280,387,l),
(60,46,l),
(60,0,l),
(596,0,l),
(620,118,l),
(566,90,o),
(512,80,o),
(403,80,cs),
(197,80,l),
(337,298,l),
(352,321,l),
(361,336,l),
(394,389,l),
(197,695,l),
(403,695,ls),
(512,695,o),
(566,685,o),
(620,657,c),
(596,775,l)
);
}
);
width = 680;
}
);
metricLeft = Z;
metricRight = Z;
unicode = 8721;
}
{
glyphname = minus;
layers = (
{
layerId = m01;
shapes = (
{
closed = 1;
nodes = (
(30,222,l),
(96,235,o),
(127,235,o),
(202,235,cs),
(408,235,ls),
(483,235,o),
(514,235,o),
(580,222,c),
(580,328,l),
(514,315,o),
(483,315,o),
(408,315,cs),
(202,315,ls),
(127,315,o),
(96,315,o),
(30,328,c)
);
}
);
width = 610;
}
);
unicode = 8722;
}
{
glyphname = radical;
layers = (
{
layerId = m01;
shapes = (
{
closed = 1;
nodes = (
(463,775,l),
(276,128,l),
(199,358,ls),
(167,455,o),
(157,502,o),
(149,550,c),
(15,550,l),
(48,501,o),
(67,453,o),
(104,350,cs),
(230,0,l),
(320,0,l),
(535,695,l),
(560,695,ls),
(637,695,o),
(681,684,o),
(703,670,c),
(684,775,l)
);
}
);
width = 723;
}
);
metricLeft = v;
unicode = 8730;
}
{
glyphname = infinity;
layers = (
{
layerId = m01;
shapes = (
{
closed = 1;
nodes = (
(30,160,o),
(112,76,o),
(230,76,cs),
(311,76,o),
(371,125,o),
(406,195,c),
(435,119,o),
(497,76,o),
(586,76,cs),
(705,76,o),
(785,160,o),
(785,275,cs),
(785,390,o),
(705,475,o),
(586,475,cs),
(494,475,o),
(442,421,o),
(410,356,c),
(379,426,o),
(317,475,o),
(230,475,cs),
(112,475,o),
(30,390,o),
(30,275,cs)
);
},
{
closed = 1;
nodes = (
(112,339,o),
(140,405,o),
(230,405,cs),
(302,405,o),
(358,337,o),
(378,279,c),
(344,198,o),
(305,146,o),
(230,146,cs),
(141,146,o),
(112,210,o),
(112,274,cs)
);
},
{
closed = 1;
nodes = (
(475,354,o),
(515,405,o),
(586,405,cs),
(676,405,o),
(703,339,o),
(703,274,cs),
(703,210,o),
(676,146,o),
(586,146,cs),
(508,146,o),
(459,220,o),
(442,279,c)
);
}
);
width = 815;
}
);
metricLeft = o;
metricRight = o;
unicode = 8734;
}
{
glyphname = integral;
layers = (
{
layerId = m01;
shapes = (
{
closed = 1;
nodes = (
(249,-133,o),
(315,-65,o),
(315,49,cs),
(315,310,o),
(313,458,o),
(313,686,cs),
(313,742,o),
(342,774,o),
(389,774,cs),
(440,774,o),
(469,745,o),
(490,696,c),
(494,696,l),
(506,797,l),
(488,818,o),
(464,854,o),
(390,854,cs),
(297,854,o),
(227,799,o),
(227,686,cs),
(228,52,ls),
(228,-11,o),
(208,-53,o),
(158,-53,cs),
(84,-53,o),
(58,32,o),
(53,64,c),
(49,64,l),
(35,-47,l),
(49,-80,o),
(92,-133,o),
(158,-133,cs)
);
}
);
width = 541;
}
);
metricLeft = s;
metricRight = s;
unicode = 8747;
}
{
glyphname = approxequal;
layers = (
{
layerId = m01;
shapes = (
{
closed = 1;
nodes = (
(404,355,o),
(392,331,o),
(365,331,cs),
(289,331,o),
(256,431,o),
(148,431,cs),
(63,431,o),
(30,362,o),
(30,271,c),
(115,271,l),
(115,327,o),
(127,351,o),
(154,351,cs),
(230,351,o),
(263,251,o),
(371,251,cs),
(456,251,o),
(489,320,o),
(489,411,c),
(404,411,l)
);
},
{
closed = 1;
nodes = (
(404,143,o),
(392,119,o),
(365,119,cs),
(289,119,o),
(256,219,o),
(148,219,cs),
(63,219,o),
(30,150,o),
(30,59,c),
(115,59,l),
(115,115,o),
(127,139,o),
(154,139,cs),
(230,139,o),
(263,39,o),
(371,39,cs),
(456,39,o),
(489,108,o),
(489,199,c),
(404,199,l)
);
}
);
width = 519;
}
);
unicode = 8776;
}
{
glyphname = notequal;
layers = (
{
layerId = m01;
shapes = (
{
closed = 1;
nodes = (
(30,348,l),
(96,361,o),
(127,361,o),
(202,361,cs),
(320,361,l),
(222,189,l),
(202,189,ls),
(127,189,o),
(96,189,o),
(30,202,c),
(30,96,l),
(87,107,o),
(118,109,o),
(174,109,c),
(141,59,o),
(114,23,o),
(96,0,c),
(224,0,l),
(231,28,o),
(244,63,o),
(269,109,c),
(408,109,ls),
(483,109,o),
(514,109,o),
(580,96,c),
(580,202,l),
(514,189,o),
(483,189,o),
(408,189,cs),
(313,189,l),
(400,343,l),
(410,361,l),
(484,361,o),
(515,361,o),
(580,348,c),
(580,454,l),
(531,444,o),
(502,442,o),
(459,441,c),
(492,492,o),
(519,527,o),
(537,550,c),
(409,550,l),
(402,521,o),
(386,489,o),
(361,441,c),
(202,441,ls),
(127,441,o),
(96,441,o),
(30,454,c)
);
}
);
width = 610;
}
);
unicode = 8800;
}
{
glyphname = lessequal;
layers = (
{
layerId = m01;
shapes = (
{
closed = 1;
nodes = (
(528,561,l),
(30,375,l),
(30,285,l),
(527,95,l),
(527,192,l),
(125,329,l),
(528,465,l)
);
},
{
closed = 1;
nodes = (
(527,80,l),
(30,80,l),
(30,0,l),
(527,0,l)
);
}
);
width = 558;
}
);
unicode = 8804;
}
{
glyphname = greaterequal;
layers = (
{
layerId = m01;
shapes = (
{
closed = 1;
nodes = (
(433,329,l),
(31,192,l),
(31,95,l),
(528,285,l),
(528,375,l),
(30,561,l),
(30,465,l)
);
},
{
closed = 1;
nodes = (
(528,0,l),
(528,80,l),
(31,80,l),
(31,0,l)
);
}
);
width = 558;
}
);
unicode = 8805;
}
{
glyphname = .notdef;
layers = (
{
layerId = m01;
shapes = (
{
closed = 1;
nodes = (
(168,131,l),
(246,53,l),
(324,131,l),
(246,209,l)
);
},
{
closed = 1;
nodes = (
(40,258,l),
(118,180,l),
(196,258,l),
(118,336,l)
);
},
{
closed = 1;
nodes = (
(168,386,l),
(246,308,l),
(324,386,l),
(246,464,l)
);
},
{
closed = 1;
nodes = (
(296,514,l),
(374,436,l),
(452,514,l),
(374,592,l)
);
},
{
closed = 1;
nodes = (
(297,259,l),
(375,181,l),
(453,259,l),
(375,337,l)
);
},
{
closed = 1;
nodes = (
(40,514,l),
(118,436,l),
(196,514,l),
(118,592,l)
);
},
{
closed = 1;
nodes = (
(168,642,l),
(246,564,l),
(324,642,l),
(246,720,l)
);
}
);
width = 493;
}
);
}
{
glyphname = caroncomb.alt;
layers = (
{
anchors = (
{
name = _topright;
pos = (30,785);
}
);
layerId = m01;
shapes = (
{
closed = 1;
nodes = (
(50,728,l),
(91,687,l),
(64,615,l),
(85,609,l),
(154,728,l),
(102,780,l)
);
}
);
width = 204;
}
);
}
{
glyphname = periodcentered.loclCAT;
layers = (
{
layerId = m01;
shapes = (
{
closed = 1;
nodes = (
(-20,368,l),
(58,290,l),
(136,368,l),
(58,446,l)
);
}
);
width = 116;
}
);
}
